<?xml version="1.0" encoding="UTF-8"?>
<!DOCTYPE svg PUBLIC "-//W3C//DTD SVG 1.1//EN" "http://www.w3.org/Graphics/SVG/1.1/DTD/svg11.dtd">
<!-- Creator: CorelDRAW 2018 (64-Bit) -->
<svg xmlns="http://www.w3.org/2000/svg" xml:space="preserve" width="61.3118mm" height="6.9032mm" version="1.1" style="shape-rendering:geometricPrecision; text-rendering:geometricPrecision; image-rendering:optimizeQuality; fill-rule:evenodd; clip-rule:evenodd"
viewBox="0 0 9314.66 1048.75"
 xmlns:xlink="http://www.w3.org/1999/xlink">
 <defs>
  <style type="text/css">
   <![CDATA[
    .fil0 {fill:#FF4208;fill-rule:nonzero}
   ]]>
  </style>
 </defs>
 <g id="Слой_x0020_1">
  <metadata id="CorelCorpID_0Corel-Layer"/>
  <path class="fil0" d="M698.65 60.85c2.9,-11.59 8.69,-20.28 17.38,-28.97 8.69,-5.79 17.38,-8.69 28.97,-8.69l150.65 0c26.07,0 37.66,11.59 34.76,40.56l-182.52 932.87c0,11.59 -5.79,20.28 -14.48,26.07 -8.69,5.79 -20.28,11.59 -31.87,11.59l-150.65 0c-26.07,0 -37.66,-14.48 -34.76,-40.56l63.73 -330.27c0,-8.69 0,-17.38 -5.79,-26.07 -2.9,-8.69 -11.59,-11.59 -23.18,-11.59l-199.9 0c-20.28,0 -34.76,2.9 -40.56,8.69 -5.79,8.69 -8.69,17.38 -11.59,31.87l-63.73 330.27c-2.9,11.59 -8.69,20.28 -17.38,26.07 -8.69,5.79 -20.28,11.59 -31.87,11.59l-150.65 0c-26.07,0 -37.66,-14.48 -34.76,-40.56l182.52 -932.87c0,-11.59 5.79,-20.28 14.48,-28.97 8.69,-5.79 20.28,-8.69 31.87,-8.69l150.65 0c11.59,0 20.28,2.9 28.97,11.59 5.79,8.69 8.69,17.38 5.79,28.97 -8.69,49.25 -17.38,101.39 -28.97,159.34 -11.59,55.04 -23.18,107.2 -31.87,153.55 0,14.48 0,26.07 2.9,31.87 2.9,5.79 11.59,8.69 23.18,8.69l211.49 0c17.38,0 26.07,-2.9 31.87,-8.69 5.79,-5.79 8.69,-17.38 11.59,-34.76l63.73 -312.89 0 -0.02zm1025.57 654.74c-5.79,40.56 -20.28,81.13 -37.66,121.67 -17.38,40.56 -40.56,75.32 -72.42,104.3 -31.87,31.87 -69.54,55.04 -118.79,72.42 -46.35,20.28 -104.3,28.97 -173.83,28.97 -57.94,0 -110.08,-8.69 -153.55,-28.97 -46.35,-17.38 -81.13,-43.45 -107.2,-75.32 -26.07,-28.97 -46.35,-66.63 -55.04,-110.08 -8.69,-43.45 -8.69,-86.92 2.9,-136.17l69.54 -367.93c20.28,-98.51 63.73,-173.83 130.36,-231.77 66.63,-57.94 156.45,-86.92 266.53,-86.92 52.16,0 98.51,8.69 139.05,26.07 43.45,17.38 78.23,40.56 110.08,69.54 28.97,31.87 49.25,66.63 60.85,107.2 14.48,40.56 14.48,86.92 5.79,136.17l-66.63 370.83 0.02 0zm-168.03 -367.93c2.9,-14.48 5.79,-31.87 2.9,-46.35 0,-17.38 -5.79,-31.87 -11.59,-43.45 -8.69,-14.48 -20.28,-23.18 -34.76,-31.87 -17.38,-8.69 -37.66,-11.59 -63.73,-11.59 -43.45,0 -75.32,11.59 -98.51,34.76 -20.28,23.18 -34.76,49.25 -40.56,75.32l-75.32 385.32c-5.79,37.66 0,66.63 17.38,89.82 17.38,23.18 46.35,34.76 89.82,34.76 43.45,0 75.32,-11.59 98.51,-31.87 23.18,-23.18 37.66,-46.35 43.45,-75.32l72.42 -379.52zm512.79 -283.93c0,-14.48 5.79,-23.18 17.38,-31.87 8.69,-5.79 17.38,-8.69 31.87,-8.69l147.76 0c28.97,0 40.56,11.59 34.76,40.56l-98.51 498.31c0,2.9 0,2.9 2.9,5.79 0,0 2.9,0 5.79,-2.9l0 0c60.85,-81.13 124.58,-165.14 188.31,-252.06 66.63,-84.01 130.36,-168.03 191.21,-252.06 11.59,-14.48 23.18,-23.18 31.87,-28.97 8.69,-5.79 23.18,-8.69 40.56,-8.69l107.2 0c28.97,0 37.66,11.59 34.76,40.56l-182.52 929.98c-5.79,26.07 -20.28,40.56 -46.35,40.56l-147.76 0c-14.48,0 -23.18,-5.79 -28.97,-11.59 -8.69,-8.69 -8.69,-17.38 -8.69,-28.97l98.51 -492.5c0,-5.79 -2.9,-8.69 -5.79,-2.9 -60.85,81.13 -127.48,165.14 -194.11,249.15 -66.63,86.92 -130.36,170.93 -191.21,252.06 -11.59,17.38 -23.18,26.07 -31.87,28.97 -11.59,2.9 -23.18,5.79 -34.76,5.79l-110.08 0c-28.97,0 -40.56,-14.48 -34.76,-40.56l182.52 -929.98 -0.02 0.02zm1042.97 683.73c-2.9,26.07 2.9,46.35 17.38,63.73 14.48,14.48 43.45,23.18 84.01,23.18 17.38,0 34.76,-2.9 57.94,-11.59 23.18,-11.59 43.45,-26.07 60.85,-49.25 8.69,-8.69 17.38,-17.38 26.07,-26.07 8.69,-8.69 20.28,-8.69 34.76,0l118.79 75.32c11.59,8.69 17.38,20.28 17.38,31.87 0,11.59 -5.79,23.18 -14.48,34.76 -23.18,31.87 -49.25,57.94 -75.32,78.23 -26.07,20.28 -52.16,34.76 -81.13,46.35 -28.97,11.59 -55.04,20.28 -86.92,23.18 -28.97,2.9 -57.94,5.79 -89.82,5.79 -95.61,0 -170.93,-23.18 -225.97,-69.54 -52.16,-46.35 -81.13,-104.3 -81.13,-176.72 0,-23.18 2.9,-43.45 8.69,-60.85l84.01 -434.56c8.69,-43.45 23.18,-84.01 40.56,-118.79 17.38,-37.66 40.56,-66.63 69.54,-92.7 28.97,-26.07 63.73,-46.35 101.39,-60.85 37.66,-14.48 84.01,-23.18 136.17,-23.18 20.28,0 43.45,2.9 69.54,2.9 28.97,2.9 55.04,8.69 84.01,20.28 28.97,11.59 57.94,28.97 86.92,49.25 28.97,23.18 55.04,55.04 81.13,95.61 8.69,17.38 0,34.76 -23.18,55.04l-92.7 81.13c-14.48,8.69 -26.07,14.48 -37.66,11.59 -8.69,-2.9 -23.18,-14.48 -37.66,-34.76 -20.28,-28.97 -43.45,-46.35 -69.54,-57.94 -26.07,-8.69 -46.35,-14.48 -63.73,-14.48 -37.66,0 -63.73,8.69 -81.13,26.07 -17.38,17.38 -28.97,37.66 -34.76,63.73l-84.01 443.27 0 -0.02z"/>
  <g id="_1973109480464">
   <path class="fil0" d="M4519.95 359.24c0,0 0,2.9 5.79,2.9 23.18,0 43.45,-2.9 57.94,-8.69 17.38,-5.79 28.97,-14.48 40.56,-23.18 8.69,-8.69 17.38,-20.28 23.18,-31.87 2.9,-11.59 8.69,-26.07 11.59,-37.66l20.28 -110.08c2.9,-11.59 2.9,-23.18 0,-37.66 -2.9,-11.59 -5.79,-23.18 -14.48,-34.76 -8.69,-8.69 -17.38,-17.38 -28.97,-23.18 -14.48,-5.79 -28.97,-8.69 -46.35,-11.59 -5.79,0 -8.69,2.9 -8.69,5.79l-60.85 310 -0.02 0zm46.35 -309.98c0,-2.9 0,-2.9 0,-2.9 0,0 -2.9,-2.9 -2.9,-2.9 -23.18,0 -40.56,5.79 -55.04,11.59 -17.38,5.79 -28.97,14.48 -40.56,23.18 -11.59,11.59 -20.28,23.18 -26.07,34.76 -5.79,14.48 -8.69,26.07 -11.59,37.66l-20.28 104.3c-2.9,11.59 -2.9,23.18 -2.9,34.76 2.9,14.48 5.79,23.18 14.48,34.76 5.79,11.59 14.48,20.28 28.97,26.07 11.59,5.79 28.97,11.59 52.16,11.59 0,0 2.9,0 2.9,-2.9l60.85 -310 0 0.03zm-55.04 356.33c0,2.9 0,2.9 -2.9,2.9l-8.69 0c-2.9,0 -2.9,0 -2.9,-2.9l5.79 -26.07c0,-2.9 0,-2.9 -2.9,-2.9 -23.18,-2.9 -40.56,-5.79 -55.04,-14.48 -14.48,-5.79 -26.07,-17.38 -34.76,-28.97 -8.69,-8.69 -11.59,-23.18 -14.48,-37.66 -2.9,-11.59 -2.9,-26.07 0,-40.56l20.28 -101.39c2.9,-17.38 8.69,-31.87 14.48,-46.35 5.79,-14.48 14.48,-26.07 26.07,-37.66 11.59,-11.59 26.07,-20.28 46.35,-26.07 17.38,-8.69 37.66,-11.59 63.73,-11.59 2.9,0 2.9,-2.9 5.79,-5.79l0 -11.59c0,0 2.9,-2.9 5.79,-2.9l5.79 0c2.9,0 5.79,2.9 2.9,2.9l0 11.59c-2.9,2.9 0,5.79 2.9,5.79 20.28,0 37.66,5.79 52.16,11.59 14.48,8.69 26.07,17.38 34.76,28.97 8.69,8.69 14.48,23.18 17.38,37.66 2.9,14.48 2.9,28.97 0,43.45l-23.18 107.2c-2.9,17.38 -5.79,31.87 -11.59,43.45 -5.79,14.48 -14.48,26.07 -26.07,37.66 -11.59,8.69 -26.07,17.38 -43.45,23.18 -17.38,5.79 -40.56,8.69 -66.63,11.59 -2.9,0 -5.79,0 -5.79,2.9l-5.79 26.07 0.02 -0.02zm228.87 118.79c-2.9,0 -2.9,2.9 -5.79,2.9l-8.69 0c-2.9,0 -2.9,-2.9 0,-5.79l55.04 -110.08c2.9,0 2.9,-2.9 0,-2.9l-2.9 0c-2.9,0 -2.9,0 -2.9,0 -2.9,-2.9 -2.9,-2.9 -2.9,-8.69l-46.35 -263.63c0,-2.9 0,-5.79 2.9,-5.79l5.79 0c2.9,0 2.9,0 2.9,2.9 2.9,0 2.9,0 2.9,2.9l46.35 257.84c0,2.9 0,5.79 2.9,5.79 0,0 0,-2.9 2.9,-5.79l95.61 -182.52c8.69,-11.59 11.59,-26.07 11.59,-37.66 0,-11.59 2.9,-23.18 2.9,-40.56 0,-2.9 0,-2.9 2.9,-2.9l5.79 0c2.9,0 2.9,0 5.79,2.9 0,0 0,0 0,2.9 0,8.69 0,17.38 0,23.18 0,8.69 -2.9,14.48 -2.9,20.28 -2.9,5.79 -2.9,14.48 -5.79,20.28 -2.9,8.69 -5.79,14.48 -8.69,23.18l-159.34 301.29 -0.02 -0.05zm405.59 -217.28c-2.9,11.59 -5.79,26.07 -11.59,37.66 -5.79,11.59 -11.59,23.18 -23.18,34.76 -8.69,8.69 -17.38,17.38 -31.87,23.18 -14.48,5.79 -28.97,8.69 -49.25,8.69 -14.48,0 -28.97,-2.9 -43.45,-8.69 -14.48,-5.79 -26.07,-17.38 -34.76,-28.97 0,-5.79 -2.9,-2.9 -2.9,0l-28.97 147.76c0,2.9 -2.9,2.9 -5.79,2.9l-5.79 0c-2.9,0 -5.79,0 -2.9,-2.9l75.32 -388.21c0,0 0,-2.9 2.9,-2.9l8.69 0c2.9,0 2.9,2.9 2.9,2.9l-5.79 28.97c0,2.9 0,2.9 0,5.79 0,0 0,-2.9 2.9,-2.9 11.59,-11.59 26.07,-23.18 40.56,-28.97 17.38,-5.79 31.87,-8.69 49.25,-8.69 14.48,0 28.97,2.9 40.56,8.69 11.59,2.9 20.28,11.59 26.07,20.28 8.69,8.69 11.59,17.38 14.48,28.97 0,14.48 0,26.07 -2.9,40.56l-14.48 81.13 -0.02 -0.02zm0 -81.13c5.79,-26.07 2.9,-46.35 -8.69,-63.73 -11.59,-14.48 -31.87,-23.18 -60.85,-23.18 -11.59,0 -23.18,2.9 -34.76,5.79 -11.59,5.79 -20.28,11.59 -28.97,17.38 -8.69,8.69 -17.38,17.38 -23.18,28.97 -5.79,8.69 -11.59,20.28 -14.48,34.76l-14.48 84.01c-2.9,11.59 -2.9,23.18 -2.9,34.76 2.9,11.59 5.79,20.28 11.59,28.97 5.79,5.79 14.48,14.48 26.07,17.38 8.69,5.79 20.28,8.69 34.76,8.69 14.48,0 26.07,-2.9 37.66,-8.69 11.59,-2.9 20.28,-11.59 28.97,-17.38 8.69,-8.69 17.38,-17.38 23.18,-28.97 2.9,-11.59 8.69,-23.18 11.59,-34.76l14.48 -84.01 0 0.02zm246.25 52.16c0,-2.9 0,-5.79 -5.79,-5.79l-150.65 0c-5.79,0 -8.69,2.9 -8.69,5.79l-23.18 127.48c-2.9,2.9 -2.9,2.9 -5.79,2.9l-5.79 0c0,0 -2.9,0 -2.9,0 -2.9,0 -2.9,-2.9 -2.9,-2.9l55.04 -269.44c0,-2.9 0,-2.9 0,-5.79 2.9,0 2.9,0 5.79,0l2.9 0c2.9,0 5.79,0 5.79,5.79l-23.18 115.89c-2.9,5.79 0,5.79 5.79,5.79l150.65 0c5.79,0 8.69,0 8.69,-5.79l23.18 -115.89c0,-5.79 0,-5.79 5.79,-5.79l2.9 0c2.9,0 5.79,0 5.79,5.79l-52.16 269.44c0,2.9 -2.9,2.9 -5.79,2.9l-5.79 0c-2.9,0 -5.79,0 -2.9,-2.9l23.18 -127.48 0.02 0zm254.96 127.46c0,2.9 0,2.9 -2.9,2.9l-8.69 0c-2.9,0 -2.9,0 -2.9,-2.9l5.79 -28.97c2.9,-8.69 0,-8.69 -2.9,-2.9 -11.59,11.59 -26.07,23.18 -40.56,28.97 -17.38,5.79 -31.87,8.69 -49.25,8.69 -17.38,0 -34.76,-2.9 -46.35,-8.69 -11.59,-5.79 -20.28,-14.48 -26.07,-23.18 -2.9,-11.59 -8.69,-23.18 -8.69,-34.76 0,-11.59 0,-23.18 2.9,-37.66l34.76 -173.83c0,0 0,-2.9 2.9,-2.9l8.69 0c2.9,0 2.9,2.9 2.9,2.9l-34.76 176.72c-2.9,11.59 -2.9,23.18 -2.9,34.76 2.9,8.69 5.79,20.28 11.59,26.07 5.79,8.69 11.59,17.38 23.18,20.28 8.69,5.79 20.28,8.69 34.76,8.69 14.48,0 26.07,-2.9 37.66,-8.69 11.59,-2.9 20.28,-8.69 28.97,-17.38 8.69,-8.69 17.38,-17.38 23.18,-28.97 5.79,-11.59 11.59,-23.18 14.48,-34.76l31.87 -176.72c2.9,0 2.9,-2.9 5.79,-2.9l8.69 0c0,0 2.9,2.9 2.9,2.9l-55.04 272.32 0 0.02zm414.28 0c0,2.9 0,2.9 -2.9,2.9l-8.69 0c-2.9,0 -2.9,0 -2.9,-2.9l34.76 -185.42c5.79,-23.18 2.9,-43.45 -8.69,-57.94 -11.59,-14.48 -28.97,-20.28 -52.16,-20.28 -8.69,0 -20.28,0 -28.97,5.79 -8.69,2.9 -20.28,8.69 -26.07,17.38 -8.69,5.79 -17.38,14.48 -23.18,23.18 -5.79,11.59 -11.59,20.28 -11.59,31.87 -5.79,20.28 -8.69,37.66 -11.59,52.16 -2.9,11.59 -2.9,23.18 -5.79,31.87 -2.9,8.69 -2.9,14.48 -2.9,20.28 -2.9,5.79 -2.9,11.59 -5.79,20.28 0,5.79 -2.9,14.48 -2.9,23.18 -2.9,8.69 -5.79,23.18 -8.69,37.66 0,2.9 0,2.9 -2.9,2.9l-8.69 0c-2.9,0 -2.9,0 -2.9,-2.9l37.66 -185.42c0,-11.59 0,-20.28 0,-31.87 -2.9,-8.69 -8.69,-17.38 -11.59,-23.18 -5.79,-8.69 -14.48,-14.48 -23.18,-17.38 -8.69,-5.79 -17.38,-5.79 -26.07,-5.79 -11.59,0 -23.18,0 -31.87,5.79 -11.59,2.9 -20.28,8.69 -28.97,14.48 -8.69,8.69 -14.48,17.38 -20.28,26.07 -5.79,8.69 -11.59,20.28 -11.59,31.87l-37.66 185.42c0,2.9 0,2.9 -2.9,2.9l-8.69 0c-2.9,0 -2.9,0 -2.9,-2.9l34.76 -185.42c5.79,-28.97 20.28,-52.16 40.56,-69.54 20.28,-14.48 43.45,-23.18 72.42,-23.18 14.48,0 28.97,2.9 40.56,11.59 11.59,5.79 23.18,20.28 28.97,37.66 2.9,2.9 2.9,2.9 5.79,0 26.07,-31.87 55.04,-49.25 86.92,-49.25 14.48,0 26.07,2.9 37.66,5.79 8.69,5.79 20.28,11.59 26.07,17.38 5.79,8.69 11.59,17.38 14.48,28.97 2.9,11.59 2.9,26.07 0,40.56 -5.79,20.28 -8.69,37.66 -11.59,49.25 -2.9,14.48 -2.9,26.07 -5.79,34.76 -2.9,8.69 -2.9,14.48 -2.9,20.28 -2.9,5.79 -2.9,11.59 -5.79,20.28 0,5.79 -2.9,14.48 -2.9,23.18 -2.9,8.69 -5.79,23.18 -8.69,37.66l0.08 0.02zm107.2 118.79c0,0 -2.9,2.9 -2.9,2.9l-8.69 0c-2.9,0 -2.9,-2.9 -2.9,-5.79l57.94 -110.08c2.9,0 0,-2.9 0,-2.9l-2.9 0c-2.9,0 -2.9,0 -5.79,0 0,-2.9 0,-2.9 0,-8.69l-46.35 -263.63c0,-2.9 0,-5.79 2.9,-5.79l5.79 0c2.9,0 2.9,0 2.9,2.9 0,0 2.9,0 2.9,2.9l43.45 257.84c2.9,2.9 2.9,5.79 2.9,5.79 2.9,0 2.9,-2.9 2.9,-5.79l98.51 -182.52c5.79,-11.59 11.59,-26.07 11.59,-37.66 0,-11.59 0,-23.18 0,-40.56 0,-2.9 2.9,-2.9 5.79,-2.9l5.79 0c2.9,0 2.9,0 2.9,2.9 0,0 0,0 0,2.9 0,8.69 0,17.38 0,23.18 0,8.69 0,14.48 0,20.28 -2.9,5.79 -2.9,14.48 -5.79,20.28 -2.9,8.69 -5.79,14.48 -11.59,23.18l-159.34 301.29 -0.02 -0.05zm408.49 -217.28c-2.9,11.59 -8.69,26.07 -11.59,37.66 -5.79,11.59 -14.48,23.18 -23.18,34.76 -8.69,8.69 -20.28,17.38 -31.87,23.18 -14.48,5.79 -28.97,8.69 -49.25,8.69 -14.48,0 -31.87,-2.9 -46.35,-8.69 -14.48,-5.79 -23.18,-17.38 -31.87,-28.97 -2.9,-5.79 -2.9,-2.9 -5.79,0l-28.97 147.76c0,2.9 0,2.9 -2.9,2.9l-8.69 0c0,0 -2.9,0 -2.9,-2.9l75.32 -388.21c0,0 2.9,-2.9 5.79,-2.9l5.79 0c2.9,0 5.79,2.9 2.9,2.9l-2.9 28.97c-2.9,2.9 -2.9,2.9 -2.9,5.79 2.9,0 2.9,-2.9 5.79,-2.9 11.59,-11.59 23.18,-23.18 40.56,-28.97 17.38,-5.79 31.87,-8.69 49.25,-8.69 14.48,0 28.97,2.9 40.56,8.69 11.59,2.9 20.28,11.59 26.07,20.28 5.79,8.69 11.59,17.38 11.59,28.97 2.9,14.48 2.9,26.07 0,40.56l-14.48 81.13 0.03 -0.02zm0 -81.13c5.79,-26.07 2.9,-46.35 -8.69,-63.73 -11.59,-14.48 -31.87,-23.18 -60.85,-23.18 -11.59,0 -23.18,2.9 -34.76,5.79 -11.59,5.79 -23.18,11.59 -31.87,17.38 -8.69,8.69 -14.48,17.38 -20.28,28.97 -5.79,8.69 -11.59,20.28 -14.48,34.76l-17.38 84.01c-2.9,11.59 -2.9,23.18 0,34.76 2.9,11.59 5.79,20.28 11.59,28.97 5.79,5.79 14.48,14.48 23.18,17.38 11.59,5.79 23.18,8.69 37.66,8.69 11.59,0 26.07,-2.9 37.66,-8.69 11.59,-2.9 20.28,-11.59 28.97,-17.38 8.69,-8.69 14.48,-17.38 20.28,-28.97 5.79,-11.59 11.59,-23.18 11.59,-34.76l17.38 -84.01 -0.02 0.02zm176.73 -86.92c-11.59,0 -23.18,2.9 -34.76,5.79 -14.48,0 -26.07,5.79 -34.76,8.69 -2.9,0 -2.9,0 -5.79,0l-2.9 -5.79c0,-2.9 2.9,-5.79 5.79,-5.79 11.59,-5.79 26.07,-11.59 37.66,-11.59 14.48,-2.9 26.07,-2.9 34.76,-2.9 34.76,0 60.85,5.79 75.32,23.18 14.48,17.38 17.38,40.56 11.59,72.42l-34.76 182.52c0,2.9 -2.9,2.9 -5.79,2.9l-5.79 0c-2.9,0 -2.9,0 -2.9,-2.9 2.9,-11.59 2.9,-20.28 5.79,-23.18 0,-5.79 0,-5.79 0,-5.79 0,-2.9 0,-2.9 0,-2.9 -2.9,0 -2.9,0 -2.9,2.9 -11.59,11.59 -23.18,20.28 -37.66,26.07 -11.59,5.79 -28.97,8.69 -46.35,8.69 -23.18,0 -43.45,-5.79 -57.94,-20.28 -14.48,-11.59 -20.28,-31.87 -20.28,-55.04 0,-14.48 2.9,-28.97 8.69,-40.56 5.79,-14.48 11.59,-26.07 20.28,-34.76 8.69,-11.59 20.28,-17.38 34.76,-23.18 11.59,-5.79 26.07,-8.69 40.56,-8.69 20.28,0 37.66,2.9 49.25,11.59 14.48,8.69 23.18,17.38 28.97,31.87 0,0 0,0 0,0 2.9,0 2.9,0 2.9,-2.9l8.69 -46.35c0,-11.59 2.9,-20.28 2.9,-31.87 -2.9,-8.69 -5.79,-17.38 -8.69,-26.07 -5.79,-8.69 -14.48,-14.48 -23.18,-17.38 -11.59,-5.79 -26.07,-8.69 -43.45,-8.69l-0.02 0zm-14.49 101.41c-14.48,0 -26.07,2.9 -37.66,8.69 -11.59,2.9 -23.18,11.59 -28.97,20.28 -8.69,8.69 -14.48,17.38 -20.28,28.97 -2.9,11.59 -5.79,23.18 -5.79,34.76 0,20.28 5.79,34.76 17.38,49.25 8.69,11.59 26.07,17.38 49.25,17.38 11.59,0 26.07,-2.9 37.66,-5.79 11.59,-5.79 20.28,-14.48 28.97,-23.18 8.69,-8.69 17.38,-17.38 20.28,-28.97 5.79,-11.59 8.69,-23.18 8.69,-34.76 0,-20.28 -8.69,-34.76 -20.28,-49.25 -11.59,-11.59 -28.97,-17.38 -49.25,-17.38zm347.66 -228.87c0,-2.9 0,-2.9 2.9,-2.9 23.18,-5.79 43.45,-8.69 60.85,-8.69 23.18,0 40.56,2.9 55.04,8.69 14.48,8.69 23.18,17.38 31.87,28.97 8.69,14.48 11.59,28.97 14.48,46.35 0,17.38 0,37.66 -2.9,60.85l-31.87 165.14c-5.79,34.76 -17.38,57.94 -34.76,75.32 -17.38,17.38 -43.45,26.07 -75.32,26.07 -17.38,0 -31.87,0 -43.45,-5.79 -11.59,-5.79 -23.18,-11.59 -31.87,-20.28 -5.79,-8.69 -11.59,-20.28 -14.48,-31.87 -2.9,-11.59 -2.9,-26.07 0,-40.56l14.48 -72.42c5.79,-31.87 17.38,-55.04 34.76,-72.42 17.38,-17.38 43.45,-26.07 72.42,-26.07 20.28,0 37.66,2.9 55.04,14.48 14.48,8.69 26.07,20.28 28.97,34.76 2.9,2.9 2.9,2.9 2.9,-2.9l8.69 -49.25c2.9,-17.38 5.79,-34.76 5.79,-49.25 -2.9,-17.38 -5.79,-28.97 -11.59,-40.56 -8.69,-11.59 -17.38,-20.28 -28.97,-26.07 -14.48,-8.69 -28.97,-11.59 -49.25,-11.59 -8.69,0 -17.38,2.9 -26.07,2.9 -11.59,0 -20.28,2.9 -31.87,5.79 -2.9,0 -2.9,0 -2.9,-2.9l-2.9 -5.79 0.03 0.02zm130.36 228.87c2.9,-11.59 2.9,-23.18 0,-34.76 -2.9,-8.69 -8.69,-20.28 -14.48,-26.07 -8.69,-8.69 -17.38,-14.48 -26.07,-17.38 -11.59,-5.79 -23.18,-8.69 -37.66,-8.69 -26.07,0 -49.25,8.69 -63.73,26.07 -14.48,14.48 -26.07,34.76 -28.97,60.85l-14.48 72.42c-5.79,26.07 0,49.25 14.48,63.73 14.48,14.48 34.76,23.18 63.73,23.18 26.07,0 46.35,-8.69 60.85,-23.18 14.48,-14.48 26.07,-37.66 31.87,-66.63l14.48 -69.54 -0.02 0zm144.86 -95.61c-2.9,0 -5.79,0 -5.79,2.9l-14.48 69.54c-8.69,43.45 -17.38,78.23 -26.07,104.3 -8.69,23.18 -17.38,43.45 -26.07,55.04 -8.69,14.48 -17.38,23.18 -26.07,28.97 -8.69,2.9 -20.28,8.69 -26.07,11.59 -2.9,0 -5.79,-2.9 -5.79,-2.9l0 -5.79c0,-2.9 0,-5.79 2.9,-5.79 8.69,-2.9 14.48,-5.79 23.18,-11.59 8.69,-2.9 14.48,-11.59 23.18,-23.18 8.69,-11.59 14.48,-28.97 23.18,-52.16 8.69,-23.18 14.48,-55.04 23.18,-98.51l17.38 -84.01c0,-2.9 2.9,-2.9 5.79,-2.9l165.14 0c0,0 0,0 0,0 0,2.9 0,2.9 0,2.9l-52.16 272.32c0,2.9 0,5.79 -2.9,5.79l-8.69 0c-2.9,0 -2.9,-2.9 -2.9,-5.79l49.25 -257.84c0,-2.9 0,-2.9 -2.9,-2.9l-133.27 0 -0.05 0.02zm231.77 141.96c0,-2.9 0,-2.9 0,-5.79 -11.59,-8.69 -17.38,-17.38 -23.18,-31.87 -5.79,-11.59 -8.69,-26.07 -5.79,-43.45 2.9,-20.28 11.59,-37.66 26.07,-52.16 14.48,-14.48 31.87,-23.18 57.94,-23.18l110.08 0c2.9,0 5.79,2.9 5.79,2.9 0,2.9 0,2.9 0,2.9l-52.16 269.44c0,2.9 -2.9,2.9 -2.9,2.9l-8.69 0c-2.9,0 -2.9,0 -2.9,-2.9l23.18 -118.79c0,0 0,0 -2.9,0l-107.2 0c0,0 -2.9,0 -5.79,2.9l-75.32 115.89c0,0 0,2.9 0,2.9 -2.9,0 -2.9,0 -2.9,0l-11.59 0c-2.9,0 -2.9,0 0,-2.9l78.23 -118.79 0.03 0zm55.04 -141.96c-11.59,0 -23.18,2.9 -31.87,5.79 -8.69,5.79 -14.48,8.69 -20.28,17.38 -5.79,5.79 -8.69,11.59 -11.59,20.28 -2.9,5.79 -5.79,14.48 -5.79,20.28 0,8.69 0,20.28 2.9,31.87 2.9,11.59 8.69,23.18 20.28,28.97 0,2.9 2.9,2.9 2.9,2.9 2.9,0 2.9,0 5.79,0l110.08 0c2.9,0 2.9,0 2.9,-2.9l23.18 -118.79c0,-2.9 0,-5.79 -2.9,-5.79l-95.61 0zm-3088.33 895.21c-2.9,2.9 -2.9,2.9 -5.79,2.9l-8.69 0c0,0 -2.9,0 -2.9,-2.9 2.9,-5.79 2.9,-14.48 5.79,-20.28 0,-8.69 2.9,-14.48 2.9,-23.18 2.9,-8.69 2.9,-14.48 5.79,-23.18 2.9,-11.59 2.9,-23.18 0,-34.76 0,-8.69 -2.9,-17.38 -8.69,-26.07 -5.79,-8.69 -14.48,-14.48 -23.18,-17.38 -8.69,-5.79 -20.28,-8.69 -34.76,-8.69 -11.59,0 -23.18,2.9 -34.76,8.69 -11.59,2.9 -20.28,8.69 -28.97,17.38 -8.69,5.79 -17.38,14.48 -23.18,23.18 -5.79,11.59 -8.69,20.28 -11.59,28.97l-14.48 75.32c0,2.9 -2.9,2.9 -2.9,2.9l-8.69 0c-2.9,0 -2.9,0 -2.9,-2.9l52.16 -272.32c0,-2.9 2.9,-2.9 5.79,-2.9l5.79 0c2.9,0 2.9,0 2.9,2.9l-26.07 136.17c0,2.9 0,5.79 0,2.9 2.9,0 2.9,0 5.79,0l173.83 -139.05c0,0 2.9,-2.9 2.9,-2.9 0,0 2.9,0 5.79,0l11.59 0c2.9,0 2.9,0 0,2.9l-127.48 101.39c-2.9,5.79 -5.79,8.69 0,5.79 2.9,0 5.79,0 8.69,0 2.9,0 2.9,0 5.79,0 17.38,0 31.87,2.9 43.45,5.79 11.59,5.79 20.28,14.48 26.07,23.18 5.79,8.69 11.59,20.28 11.59,31.87 2.9,11.59 2.9,23.18 0,34.76 0,8.69 -2.9,14.48 -2.9,23.18 -2.9,11.59 -5.79,26.07 -8.69,46.35l0.03 -0.02zm188.32 -266.53c-8.69,0 -23.18,0 -34.76,2.9 -14.48,2.9 -26.07,5.79 -34.76,11.59 -2.9,0 -2.9,0 -5.79,-2.9l0 -5.79c-2.9,0 0,-2.9 2.9,-5.79 11.59,-5.79 26.07,-8.69 37.66,-11.59 14.48,0 26.07,-2.9 34.76,-2.9 34.76,0 60.85,8.69 75.32,26.07 14.48,14.48 17.38,40.56 11.59,69.54l-34.76 185.42c0,2.9 0,2.9 -2.9,2.9l-8.69 0c-2.9,0 -2.9,0 -2.9,-2.9 2.9,-11.59 5.79,-20.28 5.79,-26.07 0,-2.9 0,-5.79 0,-5.79 0,0 0,-2.9 0,-2.9 0,0 -2.9,2.9 -2.9,2.9 -11.59,14.48 -23.18,23.18 -34.76,28.97 -14.48,5.79 -28.97,8.69 -49.25,8.69 -23.18,0 -43.45,-5.79 -55.04,-20.28 -14.48,-14.48 -23.18,-31.87 -23.18,-55.04 0,-14.48 2.9,-28.97 8.69,-43.45 5.79,-11.59 11.59,-23.18 20.28,-34.76 11.59,-8.69 20.28,-17.38 34.76,-23.18 11.59,-5.79 26.07,-8.69 43.45,-8.69 20.28,0 34.76,5.79 49.25,14.48 11.59,5.79 20.28,17.38 26.07,28.97 0,2.9 0,2.9 2.9,2.9 0,0 0,-2.9 0,-2.9l8.69 -46.35c2.9,-11.59 2.9,-23.18 2.9,-31.87 0,-8.69 -2.9,-20.28 -8.69,-26.07 -5.79,-8.69 -11.59,-14.48 -23.18,-20.28 -11.59,-2.9 -26.07,-5.79 -43.45,-5.79l0 -0.03zm-14.49 101.39c-14.48,0 -26.07,0 -37.66,5.79 -11.59,5.79 -20.28,11.59 -28.97,20.28 -8.69,8.69 -14.48,20.28 -17.38,31.87 -5.79,11.59 -8.69,23.18 -8.69,34.76 0,20.28 5.79,34.76 17.38,46.35 8.69,14.48 26.07,20.28 49.25,20.28 14.48,0 26.07,-2.9 37.66,-8.69 11.59,-5.79 23.18,-11.59 31.87,-20.28 8.69,-8.69 14.48,-17.38 17.38,-28.97 5.79,-11.59 8.69,-23.18 8.69,-37.66 0,-17.38 -5.79,-31.87 -20.28,-46.35 -11.59,-11.59 -28.97,-17.38 -49.25,-17.38zm182.52 -107.18c0,-2.9 0,-2.9 2.9,-2.9l8.69 0c0,0 2.9,0 2.9,2.9l-11.59 55.04c-2.9,14.48 -2.9,26.07 -2.9,34.76 0,11.59 2.9,20.28 8.69,28.97 2.9,8.69 11.59,14.48 20.28,20.28 8.69,2.9 23.18,5.79 37.66,5.79 14.48,0 28.97,-2.9 43.45,-8.69 14.48,-5.79 28.97,-14.48 40.56,-28.97 2.9,0 2.9,0 2.9,-2.9 2.9,0 2.9,-5.79 2.9,-8.69l20.28 -95.61c0,-2.9 0,-2.9 2.9,-2.9l8.69 0c2.9,0 2.9,0 2.9,2.9l-52.16 272.32c0,2.9 -2.9,2.9 -5.79,2.9l-5.79 0c-2.9,0 -2.9,0 -2.9,-2.9l26.07 -139.05c0,-2.9 0,-5.79 0,-5.79 0,0 0,0 -2.9,2.9 -14.48,11.59 -28.97,17.38 -43.45,23.18 -14.48,2.9 -28.97,5.79 -40.56,5.79 -17.38,0 -34.76,-2.9 -46.35,-8.69 -8.69,-8.69 -17.38,-14.48 -23.18,-26.07 -5.79,-8.69 -8.69,-20.28 -8.69,-34.76 0,-11.59 0,-23.18 2.9,-34.76l11.59 -55.04 -0.02 -0.02zm382.42 237.56c2.9,-2.9 5.79,-2.9 8.69,-2.9l2.9 2.9c2.9,2.9 2.9,5.79 0,5.79 -8.69,14.48 -23.18,20.28 -34.76,26.07 -14.48,5.79 -31.87,8.69 -52.16,8.69 -31.87,0 -57.94,-8.69 -72.42,-26.07 -14.48,-17.38 -20.28,-40.56 -14.48,-69.54l14.48 -81.13c5.79,-37.66 20.28,-63.73 43.45,-81.13 23.18,-17.38 49.25,-26.07 84.01,-26.07 23.18,0 40.56,5.79 55.04,17.38 14.48,11.59 23.18,28.97 23.18,49.25 0,20.28 -5.79,34.76 -14.48,46.35 -11.59,11.59 -23.18,23.18 -40.56,28.97 -17.38,5.79 -37.66,11.59 -63.73,14.48 -23.18,2.9 -49.25,2.9 -75.32,2.9 -2.9,2.9 -5.79,2.9 -5.79,2.9 0,0 -2.9,0 -2.9,5.79l-5.79 23.18c-2.9,23.18 0,43.45 14.48,57.94 14.48,14.48 34.76,23.18 63.73,23.18 14.48,0 26.07,-2.9 40.56,-5.79 11.59,-5.79 23.18,-11.59 31.87,-23.18l-0.02 0.02zm-26.07 -231.77c-17.38,0 -31.87,2.9 -43.45,8.69 -11.59,5.79 -23.18,14.48 -31.87,23.18 -8.69,8.69 -14.48,17.38 -20.28,28.97 -5.79,11.59 -8.69,23.18 -11.59,34.76l-5.79 28.97c0,5.79 0,8.69 2.9,8.69 0,2.9 2.9,2.9 8.69,2.9 20.28,0 40.56,-2.9 60.85,-2.9 20.28,-2.9 40.56,-5.79 55.04,-11.59 17.38,-5.79 28.97,-14.48 40.56,-23.18 8.69,-11.59 11.59,-23.18 11.59,-40.56 0,-5.79 0,-11.59 -2.9,-20.28 0,-5.79 -5.79,-11.59 -8.69,-17.38 -5.79,-5.79 -14.48,-11.59 -20.28,-14.48 -8.69,-2.9 -20.28,-5.79 -34.76,-5.79l-0.02 0zm281.01 237.56c-8.69,11.59 -23.18,20.28 -37.66,26.07 -14.48,5.79 -31.87,8.69 -49.25,8.69 -31.87,0 -55.04,-8.69 -69.54,-26.07 -14.48,-20.28 -17.38,-43.45 -11.59,-72.42l17.38 -86.92c5.79,-28.97 17.38,-55.04 37.66,-72.42 20.28,-17.38 43.45,-26.07 75.32,-26.07 17.38,0 31.87,2.9 46.35,8.69 14.48,5.79 26.07,14.48 31.87,26.07 0,2.9 0,5.79 0,5.79l-8.69 5.79c-2.9,0 -2.9,0 -2.9,0 -8.69,-11.59 -17.38,-20.28 -28.97,-26.07 -11.59,-5.79 -26.07,-8.69 -40.56,-8.69 -11.59,0 -23.18,2.9 -34.76,8.69 -8.69,2.9 -20.28,8.69 -28.97,17.38 -5.79,5.79 -14.48,14.48 -20.28,26.07 -5.79,11.59 -11.59,23.18 -14.48,34.76l-14.48 86.92c-5.79,26.07 -2.9,46.35 8.69,63.73 14.48,14.48 31.87,23.18 60.85,23.18 14.48,0 28.97,-2.9 40.56,-8.69 11.59,-5.79 23.18,-14.48 31.87,-23.18 2.9,-2.9 2.9,-2.9 5.79,-2.9l5.79 5.79c2.9,0 2.9,2.9 0,5.79l0 0.03z"/>
   <path class="fil0" d="M5951.12 1040.06c0,2.9 -2.9,2.9 -5.79,2.9l-5.79 0c-2.9,0 -5.79,0 -2.9,-2.9l34.76 -185.42c5.79,-23.18 2.9,-43.45 -8.69,-57.94 -11.59,-14.48 -28.97,-23.18 -52.16,-23.18 -11.59,0 -20.28,2.9 -28.97,8.69 -11.59,2.9 -20.28,8.69 -28.97,14.48 -8.69,8.69 -14.48,17.38 -20.28,26.07 -8.69,8.69 -11.59,20.28 -14.48,31.87 -2.9,20.28 -5.79,37.66 -8.69,49.25 -2.9,14.48 -5.79,26.07 -5.79,31.87 -2.9,8.69 -2.9,17.38 -5.79,23.18 0,5.79 -2.9,11.59 -2.9,17.38 0,8.69 -2.9,17.38 -5.79,26.07 0,8.69 -2.9,20.28 -5.79,37.66 0,2.9 -2.9,2.9 -5.79,2.9l-5.79 0c-2.9,0 -2.9,0 -2.9,-2.9l34.76 -185.42c2.9,-11.59 2.9,-23.18 0,-31.87 -2.9,-8.69 -5.79,-17.38 -11.59,-26.07 -5.79,-5.79 -11.59,-11.59 -20.28,-14.48 -8.69,-5.79 -17.38,-8.69 -26.07,-8.69 -11.59,0 -23.18,2.9 -34.76,5.79 -8.69,5.79 -20.28,11.59 -28.97,17.38 -5.79,5.79 -14.48,14.48 -20.28,26.07 -5.79,8.69 -8.69,20.28 -11.59,31.87l-34.76 185.42c0,2.9 -2.9,2.9 -5.79,2.9l-5.79 0c-2.9,0 -5.79,0 -2.9,-2.9l34.76 -188.31c5.79,-28.97 20.28,-49.25 40.56,-66.63 17.38,-14.48 43.45,-23.18 72.42,-23.18 11.59,0 26.07,2.9 40.56,8.69 11.59,8.69 20.28,20.28 28.97,40.56 0,2.9 2.9,2.9 5.79,0 23.18,-34.76 52.16,-49.25 86.92,-49.25 11.59,0 26.07,0 34.76,5.79 11.59,2.9 20.28,8.69 28.97,17.38 5.79,8.69 11.59,17.38 11.59,28.97 2.9,11.59 2.9,23.18 0,37.66 -2.9,23.18 -5.79,40.56 -8.69,52.16 -2.9,14.48 -5.79,23.18 -5.79,31.87 -2.9,8.69 -2.9,17.38 -5.79,23.18 0,5.79 -2.9,11.59 -2.9,17.38 0,8.69 -2.9,17.38 -5.79,26.07 0,8.69 -2.9,20.28 -5.79,37.66l-0.05 0.02zm95.61 -176.73c2.9,-11.59 5.79,-20.28 11.59,-31.87 5.79,-11.59 14.48,-23.18 23.18,-34.76 11.59,-8.69 23.18,-17.38 37.66,-26.07 14.48,-5.79 31.87,-8.69 52.16,-8.69 14.48,0 28.97,0 40.56,5.79 8.69,2.9 17.38,5.79 26.07,11.59 5.79,5.79 11.59,14.48 14.48,20.28 2.9,8.69 2.9,14.48 2.9,23.18 0,14.48 -2.9,26.07 -11.59,37.66 -8.69,11.59 -23.18,17.38 -40.56,23.18 -2.9,0 -2.9,2.9 0,2.9 11.59,2.9 23.18,8.69 31.87,17.38 8.69,8.69 11.59,20.28 11.59,34.76 0,14.48 -2.9,26.07 -8.69,37.66 -5.79,11.59 -11.59,23.18 -23.18,34.76 -8.69,8.69 -23.18,17.38 -37.66,26.07 -14.48,5.79 -31.87,8.69 -49.25,8.69 -14.48,0 -26.07,0 -37.66,-2.9 -11.59,-2.9 -23.18,-8.69 -31.87,-14.48 -8.69,-8.69 -14.48,-14.48 -20.28,-26.07 -5.79,-8.69 -8.69,-20.28 -8.69,-34.76 0,-2.9 0,-5.79 0,-8.69 0,-2.9 2.9,-5.79 2.9,-11.59l14.48 -84.01 0 -0.02zm81.11 17.4c0,-2.9 2.9,-2.9 5.79,-2.9l26.07 0c11.59,0 23.18,0 31.87,-2.9 8.69,-2.9 17.38,-5.79 26.07,-8.69 8.69,-5.79 14.48,-11.59 17.38,-17.38 5.79,-8.69 5.79,-14.48 5.79,-23.18 0,-14.48 -5.79,-26.07 -17.38,-37.66 -8.69,-8.69 -28.97,-14.48 -52.16,-14.48 -17.38,0 -31.87,2.9 -43.45,8.69 -14.48,5.79 -23.18,14.48 -31.87,23.18 -8.69,8.69 -17.38,17.38 -23.18,26.07 -2.9,11.59 -8.69,20.28 -8.69,28.97l-17.38 84.01c0,8.69 -2.9,17.38 -2.9,23.18 0,11.59 2.9,20.28 8.69,28.97 2.9,8.69 8.69,14.48 17.38,20.28 5.79,5.79 14.48,8.69 26.07,11.59 8.69,2.9 20.28,5.79 28.97,5.79 20.28,0 37.66,-2.9 49.25,-11.59 14.48,-5.79 26.07,-14.48 34.76,-23.18 8.69,-8.69 14.48,-20.28 17.38,-31.87 2.9,-8.69 5.79,-20.28 5.79,-28.97 0,-17.38 -5.79,-28.97 -20.28,-34.76 -14.48,-8.69 -34.76,-11.59 -60.85,-11.59l-20.28 0c-2.9,0 -2.9,0 -2.9,-2.9l0 -8.69 0.06 0.02zm338.97 124.58c2.9,-2.9 5.79,-2.9 8.69,-2.9l2.9 2.9c2.9,2.9 2.9,5.79 0,5.79 -8.69,14.48 -20.28,20.28 -34.76,26.07 -14.48,5.79 -31.87,8.69 -52.16,8.69 -31.87,0 -55.04,-8.69 -72.42,-26.07 -14.48,-17.38 -20.28,-40.56 -14.48,-69.54l14.48 -81.13c5.79,-37.66 23.18,-63.73 43.45,-81.13 23.18,-17.38 52.16,-26.07 84.01,-26.07 23.18,0 43.45,5.79 55.04,17.38 14.48,11.59 23.18,28.97 23.18,49.25 0,20.28 -5.79,34.76 -14.48,46.35 -11.59,11.59 -23.18,23.18 -40.56,28.97 -17.38,5.79 -37.66,11.59 -60.85,14.48 -26.07,2.9 -49.25,2.9 -78.23,2.9 -2.9,2.9 -2.9,2.9 -5.79,2.9 0,0 -2.9,0 -2.9,5.79l-2.9 23.18c-5.79,23.18 0,43.45 11.59,57.94 14.48,14.48 37.66,23.18 63.73,23.18 14.48,0 28.97,-2.9 40.56,-5.79 14.48,-5.79 23.18,-11.59 31.87,-23.18l0 0.02zm-26.07 -231.77c-14.48,0 -28.97,2.9 -43.45,8.69 -11.59,5.79 -23.18,14.48 -31.87,23.18 -8.69,8.69 -14.48,17.38 -20.28,28.97 -2.9,11.59 -8.69,23.18 -8.69,34.76l-5.79 28.97c-2.9,5.79 -2.9,8.69 0,8.69 0,2.9 2.9,2.9 8.69,2.9 20.28,0 40.56,-2.9 60.85,-2.9 23.18,-2.9 40.56,-5.79 55.04,-11.59 17.38,-5.79 28.97,-14.48 40.56,-23.18 8.69,-11.59 14.48,-23.18 14.48,-40.56 0,-5.79 -2.9,-11.59 -2.9,-20.28 -2.9,-5.79 -5.79,-11.59 -11.59,-17.38 -5.79,-5.79 -11.59,-11.59 -20.28,-14.48 -8.69,-2.9 -20.28,-5.79 -34.76,-5.79zm301.29 139.05c2.9,-5.79 0,-5.79 -2.9,-5.79l-153.55 0c-5.79,0 -5.79,0 -8.69,5.79l-23.18 124.58c0,2.9 -2.9,5.79 -5.79,5.79l-5.79 0c0,0 0,0 -2.9,0 0,-2.9 0,-2.9 0,-5.79l52.16 -269.44c0,0 0,-2.9 2.9,-2.9 0,0 2.9,0 2.9,0l5.79 0c2.9,0 2.9,0 2.9,2.9l-23.18 118.79c0,2.9 0,5.79 5.79,5.79l153.55 0c2.9,0 5.79,-2.9 5.79,-5.79l23.18 -118.79c0,-2.9 2.9,-2.9 5.79,-2.9l5.79 0c2.9,0 2.9,0 2.9,2.9l-52.16 269.44c0,2.9 -2.9,5.79 -5.79,5.79l-5.79 0c-2.9,0 -2.9,-2.9 -2.9,-5.79l23.18 -124.58zm260.75 0c0,-5.79 0,-5.79 -5.79,-5.79l-150.65 0c-5.79,0 -8.69,0 -8.69,5.79l-26.07 124.58c0,2.9 0,5.79 -2.9,5.79l-5.79 0c0,0 -2.9,0 -2.9,0 -2.9,-2.9 -2.9,-2.9 -2.9,-5.79l55.04 -269.44c0,0 0,-2.9 0,-2.9 2.9,0 2.9,0 5.79,0l2.9 0c2.9,0 5.79,0 5.79,2.9l-23.18 118.79c-2.9,2.9 0,5.79 2.9,5.79l153.55 0c5.79,0 5.79,-2.9 8.69,-5.79l23.18 -118.79c0,-2.9 0,-2.9 2.9,-2.9l5.79 0c2.9,0 5.79,0 5.79,2.9l-52.16 269.44c-2.9,2.9 -2.9,5.79 -5.79,5.79l-5.79 0c-2.9,0 -5.79,-2.9 -2.9,-5.79l23.18 -124.58zm272.32 31.87c-5.79,31.87 -17.38,57.94 -37.66,75.32 -17.38,17.38 -43.45,26.07 -75.32,26.07 -14.48,0 -28.97,-2.9 -40.56,-5.79 -14.48,-5.79 -23.18,-11.59 -31.87,-20.28 -5.79,-8.69 -11.59,-20.28 -14.48,-31.87 -2.9,-11.59 -2.9,-26.07 0,-40.56l17.38 -86.92c5.79,-28.97 17.38,-52.16 34.76,-72.42 20.28,-17.38 43.45,-26.07 75.32,-26.07 14.48,0 28.97,2.9 40.56,8.69 11.59,5.79 23.18,11.59 28.97,23.18 8.69,8.69 14.48,20.28 17.38,31.87 2.9,14.48 2.9,28.97 0,43.45l-14.48 75.32zm0 -75.32c2.9,-11.59 2.9,-23.18 0,-34.76 0,-11.59 -5.79,-20.28 -11.59,-28.97 -5.79,-8.69 -14.48,-17.38 -23.18,-23.18 -11.59,-2.9 -23.18,-5.79 -37.66,-8.69 -26.07,0 -49.25,8.69 -63.73,26.07 -17.38,17.38 -28.97,37.66 -31.87,60.85l-17.38 86.92c-5.79,26.07 0,49.25 11.59,63.73 14.48,14.48 34.76,23.18 60.85,23.18 26.07,0 46.35,-8.69 63.73,-23.18 17.38,-14.48 28.97,-37.66 34.76,-66.63l14.48 -75.32 0.02 0zm246.25 170.93c0,2.9 -2.9,2.9 -5.79,2.9l-5.79 0c-2.9,0 -5.79,0 -2.9,-2.9l5.79 -31.87c0,-5.79 0,-5.79 -5.79,0 -11.59,11.59 -26.07,20.28 -40.56,28.97 -14.48,5.79 -31.87,8.69 -46.35,8.69 -20.28,0 -34.76,-2.9 -46.35,-8.69 -11.59,-5.79 -20.28,-14.48 -26.07,-26.07 -5.79,-8.69 -8.69,-20.28 -8.69,-31.87 -2.9,-14.48 0,-26.07 0,-37.66l34.76 -173.83c0,-2.9 2.9,-2.9 5.79,-2.9l5.79 0c2.9,0 2.9,0 2.9,2.9l-34.76 176.72c0,11.59 -2.9,20.28 0,31.87 0,11.59 2.9,20.28 8.69,28.97 5.79,8.69 14.48,14.48 23.18,20.28 8.69,5.79 23.18,5.79 37.66,5.79 11.59,0 23.18,0 34.76,-5.79 11.59,-5.79 23.18,-11.59 31.87,-20.28 8.69,-5.79 17.38,-17.38 23.18,-26.07 5.79,-11.59 8.69,-23.18 11.59,-34.76l34.76 -176.72c0,-2.9 2.9,-2.9 5.79,-2.9l5.79 0c2.9,0 2.9,0 2.9,2.9l-52.16 272.32zm-101.39 -376.63c0,0 0,0 2.9,0 0,-2.9 0,-2.9 0,-2.9l5.79 0c2.9,0 2.9,0 2.9,0 0,2.9 0,2.9 0,5.79 0,14.48 2.9,26.07 11.59,34.76 8.69,8.69 20.28,14.48 34.76,14.48 8.69,0 14.48,-2.9 20.28,-2.9 5.79,-2.9 14.48,-5.79 20.28,-11.59 5.79,-2.9 11.59,-8.69 17.38,-14.48 5.79,-5.79 8.69,-11.59 11.59,-20.28 2.9,-2.9 2.9,-5.79 5.79,-5.79l2.9 0c2.9,0 2.9,0 2.9,2.9 0,0 0,2.9 0,2.9 -5.79,20.28 -17.38,37.66 -31.87,46.35 -14.48,11.59 -31.87,17.38 -49.25,17.38 -8.69,0 -17.38,-2.9 -23.18,-5.79 -8.69,-2.9 -14.48,-5.79 -20.28,-11.59 -5.79,-5.79 -11.59,-11.59 -14.48,-20.28 0,-8.69 0,-17.38 0,-28.97l0 0.02zm425.87 356.35c0,2.9 -2.9,5.79 -5.79,5.79l-8.69 0c0,0 -2.9,-2.9 -2.9,-2.9 0,0 -2.9,0 -2.9,-2.9l-40.56 -159.34 -14.48 -57.94c-2.9,-2.9 -2.9,-2.9 -2.9,-2.9 0,0 0,0 -2.9,2.9l-43.45 234.66c-2.9,2.9 -2.9,5.79 -5.79,5.79l-5.79 0c-2.9,0 -5.79,-2.9 -2.9,-5.79l52.16 -269.44c0,-2.9 0,-2.9 5.79,-2.9l5.79 0c2.9,0 5.79,0 5.79,2.9l43.45 165.14 17.38 72.42c0,2.9 2.9,2.9 2.9,0l46.35 -72.42 107.2 -162.24c2.9,-5.79 5.79,-5.79 8.69,-5.79l5.79 0c2.9,0 5.79,0 5.79,2.9l-52.16 269.44c-2.9,2.9 -2.9,5.79 -5.79,5.79l-5.79 0c-5.79,0 -5.79,-2.9 -5.79,-5.79l46.35 -234.66c0,-2.9 0,-2.9 0,-2.9 -2.9,2.9 -2.9,2.9 -2.9,2.9l-40.56 60.85 -101.39 156.45 0.02 -0.02zm362.14 -14.48c2.9,-2.9 2.9,-2.9 5.79,-2.9l5.79 2.9c0,2.9 0,5.79 -2.9,5.79 -8.69,14.48 -20.28,20.28 -34.76,26.07 -14.48,5.79 -31.87,8.69 -52.16,8.69 -31.87,0 -55.04,-8.69 -72.42,-26.07 -14.48,-17.38 -20.28,-40.56 -14.48,-69.54l14.48 -81.13c8.69,-37.66 23.18,-63.73 43.45,-81.13 23.18,-17.38 52.16,-26.07 84.01,-26.07 23.18,0 43.45,5.79 57.94,17.38 11.59,11.59 20.28,28.97 20.28,49.25 0,20.28 -5.79,34.76 -14.48,46.35 -8.69,11.59 -23.18,23.18 -40.56,28.97 -17.38,5.79 -37.66,11.59 -60.85,14.48 -23.18,2.9 -49.25,2.9 -78.23,2.9 -2.9,2.9 -2.9,2.9 -5.79,2.9 0,0 -2.9,0 -2.9,5.79l-2.9 23.18c-5.79,23.18 0,43.45 11.59,57.94 14.48,14.48 37.66,23.18 63.73,23.18 14.48,0 28.97,-2.9 40.56,-5.79 14.48,-5.79 23.18,-11.59 34.76,-23.18l0.03 0.02zm-28.97 -231.77c-14.48,0 -28.97,2.9 -43.45,8.69 -11.59,5.79 -23.18,14.48 -31.87,23.18 -5.79,8.69 -14.48,17.38 -20.28,28.97 -2.9,11.59 -8.69,23.18 -8.69,34.76l-5.79 28.97c-2.9,5.79 -2.9,8.69 0,8.69 0,2.9 2.9,2.9 8.69,2.9 20.28,0 43.45,-2.9 63.73,-2.9 20.28,-2.9 37.66,-5.79 52.16,-11.59 17.38,-5.79 28.97,-14.48 40.56,-23.18 8.69,-11.59 14.48,-23.18 14.48,-40.56 0,-5.79 -2.9,-11.59 -2.9,-20.28 -2.9,-5.79 -5.79,-11.59 -11.59,-17.38 -5.79,-5.79 -11.59,-11.59 -20.28,-14.48 -8.69,-2.9 -20.28,-5.79 -34.76,-5.79zm156.45 -23.18c0,-11.59 5.79,-26.07 8.69,-37.66 5.79,-14.48 11.59,-26.07 20.28,-34.76 11.59,-11.59 20.28,-20.28 34.76,-26.07 11.59,-8.69 28.97,-11.59 49.25,-14.48l66.63 -5.79c2.9,0 5.79,0 5.79,2.9l0 5.79c0,0 -2.9,2.9 -5.79,2.9 -5.79,0 -14.48,0 -20.28,2.9 -2.9,0 -8.69,0 -14.48,0 -5.79,0 -11.59,0 -17.38,2.9 -5.79,0 -11.59,0 -20.28,2.9 -14.48,0 -28.97,5.79 -40.56,11.59 -8.69,5.79 -20.28,14.48 -26.07,23.18 -8.69,8.69 -14.48,20.28 -17.38,31.87 -5.79,11.59 -8.69,23.18 -11.59,37.66l-11.59 55.04c0,0 0,2.9 2.9,0 11.59,-11.59 23.18,-23.18 40.56,-31.87 14.48,-5.79 31.87,-11.59 46.35,-11.59 31.87,0 55.04,8.69 69.54,28.97 14.48,17.38 20.28,40.56 14.48,69.54l-14.48 81.13c-5.79,28.97 -17.38,52.16 -37.66,72.42 -20.28,17.38 -46.35,26.07 -81.13,26.07 -31.87,0 -55.04,-8.69 -69.54,-26.07 -14.48,-17.38 -17.38,-43.45 -11.59,-78.23l40.56 -191.21 0 -0.05zm-26.07 194.11c-5.79,28.97 -2.9,49.25 8.69,66.63 11.59,14.48 31.87,23.18 60.85,23.18 26.07,0 49.25,-8.69 66.63,-26.07 20.28,-14.48 31.87,-37.66 34.76,-63.73l14.48 -75.32c5.79,-26.07 2.9,-46.35 -8.69,-60.85 -11.59,-17.38 -31.87,-26.07 -60.85,-26.07 -11.59,0 -23.18,2.9 -34.76,5.79 -11.59,5.79 -20.28,11.59 -28.97,20.28 -11.59,5.79 -17.38,14.48 -23.18,26.07 -5.79,11.59 -11.59,23.18 -14.48,34.76l-14.48 75.32zm411.39 60.85c2.9,-2.9 5.79,-2.9 8.69,-2.9l2.9 2.9c2.9,2.9 2.9,5.79 0,5.79 -8.69,14.48 -23.18,20.28 -34.76,26.07 -14.48,5.79 -31.87,8.69 -52.16,8.69 -31.87,0 -55.04,-8.69 -72.42,-26.07 -14.48,-17.38 -20.28,-40.56 -14.48,-69.54l14.48 -81.13c5.79,-37.66 23.18,-63.73 43.45,-81.13 23.18,-17.38 52.16,-26.07 84.01,-26.07 23.18,0 40.56,5.79 55.04,17.38 14.48,11.59 23.18,28.97 23.18,49.25 0,20.28 -5.79,34.76 -14.48,46.35 -11.59,11.59 -23.18,23.18 -40.56,28.97 -17.38,5.79 -37.66,11.59 -60.85,14.48 -26.07,2.9 -49.25,2.9 -78.23,2.9 -2.9,2.9 -2.9,2.9 -5.79,2.9 0,0 -2.9,0 -2.9,5.79l-5.79 23.18c-2.9,23.18 0,43.45 14.48,57.94 14.48,14.48 37.66,23.18 63.73,23.18 14.48,0 26.07,-2.9 40.56,-5.79 11.59,-5.79 23.18,-11.59 31.87,-23.18l0 0.02zm-26.09 -231.77c-14.48,0 -31.87,2.9 -43.45,8.69 -11.59,5.79 -23.18,14.48 -31.87,23.18 -8.69,8.69 -14.48,17.38 -20.28,28.97 -5.79,11.59 -8.69,23.18 -11.59,34.76l-5.79 28.97c0,5.79 0,8.69 2.9,8.69 0,2.9 2.9,2.9 8.69,2.9 20.28,0 40.56,-2.9 60.85,-2.9 20.28,-2.9 40.56,-5.79 55.04,-11.59 17.38,-5.79 28.97,-14.48 40.56,-23.18 8.69,-11.59 14.48,-23.18 14.48,-40.56 0,-5.79 -2.9,-11.59 -5.79,-20.28 0,-5.79 -5.79,-11.59 -8.69,-17.38 -5.79,-5.79 -11.59,-11.59 -20.28,-14.48 -8.69,-2.9 -20.28,-5.79 -34.76,-5.79l-0.02 0zm197.01 2.9c-2.9,0 -2.9,2.9 -2.9,2.9l-14.48 72.42c-8.69,43.45 -17.38,78.23 -26.07,101.39 -8.69,26.07 -17.38,46.35 -26.07,57.94 -11.59,14.48 -20.28,23.18 -28.97,26.07 -8.69,5.79 -17.38,8.69 -26.07,11.59 -2.9,0 -2.9,0 -5.79,-2.9l0 -5.79c0,0 2.9,-2.9 2.9,-2.9 8.69,-2.9 17.38,-5.79 23.18,-11.59 8.69,-2.9 17.38,-11.59 23.18,-23.18 8.69,-11.59 17.38,-28.97 23.18,-55.04 8.69,-20.28 17.38,-55.04 26.07,-95.61l14.48 -84.01c0,-2.9 2.9,-2.9 5.79,-2.9l165.14 0c0,0 2.9,0 2.9,0 0,0 0,0 0,2.9l-55.04 272.32c0,2.9 0,2.9 -2.9,2.9l-8.69 0c0,0 -2.9,0 -2.9,-2.9l52.16 -260.75c0,0 -2.9,-2.9 -2.9,-2.9l-136.17 0 -0.03 0.03zm370.83 263.63c0,2.9 -2.9,2.9 -2.9,2.9l-8.69 0c-2.9,0 -2.9,0 -2.9,-2.9l5.79 -31.87c2.9,-5.79 0,-5.79 -2.9,0 -14.48,11.59 -26.07,20.28 -43.45,28.97 -14.48,5.79 -31.87,8.69 -46.35,8.69 -20.28,0 -34.76,-2.9 -46.35,-8.69 -11.59,-5.79 -20.28,-14.48 -26.07,-26.07 -5.79,-8.69 -8.69,-20.28 -8.69,-31.87 0,-14.48 0,-26.07 2.9,-37.66l31.87 -173.83c2.9,-2.9 2.9,-2.9 5.79,-2.9l5.79 0c2.9,0 5.79,0 2.9,2.9l-31.87 176.72c-2.9,11.59 -2.9,20.28 -2.9,31.87 0,11.59 5.79,20.28 8.69,28.97 5.79,8.69 14.48,14.48 23.18,20.28 11.59,5.79 23.18,5.79 37.66,5.79 11.59,0 26.07,0 34.76,-5.79 11.59,-5.79 23.18,-11.59 31.87,-20.28 8.69,-5.79 17.38,-17.38 23.18,-26.07 5.79,-11.59 11.59,-23.18 11.59,-34.76l34.76 -176.72c0,-2.9 2.9,-2.9 5.79,-2.9l5.79 0c2.9,0 2.9,0 2.9,2.9l-52.16 272.32 0.02 0z"/>
  </g>
 </g>
</svg>
