<?xml version="1.0" encoding="UTF-8"?>
<!DOCTYPE svg PUBLIC "-//W3C//DTD SVG 1.1//EN" "http://www.w3.org/Graphics/SVG/1.1/DTD/svg11.dtd">
<!-- Creator: CorelDRAW 2019 (64-Bit Оценочная версия) -->
<svg xmlns="http://www.w3.org/2000/svg" xml:space="preserve" width="210mm" height="45mm" version="1.1" style="shape-rendering:geometricPrecision; text-rendering:geometricPrecision; image-rendering:optimizeQuality; fill-rule:evenodd; clip-rule:evenodd"
viewBox="0 0 21000 4500"
 xmlns:xlink="http://www.w3.org/1999/xlink"
 xmlns:xodm="http://www.corel.com/coreldraw/odm/2003">
 <defs>
  <style type="text/css">
   <![CDATA[
    .str0 {stroke:#14A9BD;stroke-width:10;stroke-miterlimit:22.9256}
    .str1 {stroke:#14A9BD;stroke-width:7.62;stroke-miterlimit:22.9256}
    .fil0 {fill:#14A9BD}
    .fil1 {fill:#14A9BD;fill-rule:nonzero}
   ]]>
  </style>
 </defs>
 <g id="Слой_x0020_1">
  <metadata id="CorelCorpID_0Corel-Layer"/>
  <g id="_2787014094352">
   <g>
    <g>
     <path class="fil0" d="M11699.9 3354.39c-485.97,-1181.57 -6226.01,-806.09 -7364.52,-662.17 -287.16,36.31 -4245.49,758.02 -2583.66,-472.87 445.6,-330.04 900.39,-563.35 1450.69,-735.56 563.56,-176.36 1542.6,-130.11 1552.31,-176.63 -601.2,-450.38 -2774.55,407.65 -3315.78,952.25 -1450.89,1459.95 2159.59,678.7 2604.54,630.22 2181.33,-237.69 5678.41,-678.11 7656.42,464.76z"/>
     <path class="fil0" d="M9374.77 2367.16c-83.79,-330.83 260.32,-588.51 412.98,-445.66 143.93,134.69 -87.72,570.12 -412.98,445.66zm-2019.6 5.65c-135.54,-263.11 227.87,-574.08 394.94,-463.15 132.81,88.19 -36,575.98 -394.94,463.15zm-1489.04 -236.98c179.58,168.44 159.4,378.4 481.61,305.23 177.82,-40.38 309.79,-265.7 442.95,-380.38 10.04,639.43 141.37,269.2 480.4,360.9 262.96,71.13 252.55,-18.16 435.24,-14.56 166.25,3.28 159.26,116.22 375.89,-65.22 121.56,-101.81 141.88,-197.44 269.5,-277.23 8.21,556.3 123.57,356.63 301.11,350.63 80.56,-2.72 -34.88,51.81 174.28,9.91 189.19,-116.6 45.59,-212.67 250.5,-249.28 176.13,67.94 -19.22,146.44 207.09,246.57 113.91,50.4 271.77,29.58 388.1,-7.61 384.81,-123.02 287.59,-371.32 427.06,-457.72 171.68,84.68 -82.71,265.37 -144.36,488.29 223.64,-29.67 201.85,-7.36 305.74,-218.21 64.99,-131.9 109.07,-217.26 112.17,-366.27 -218.25,-37.3 -198.87,78.81 -362.31,49.14 -174.97,-31.76 -139.36,-98.49 -401.76,-57.81 -339.34,52.6 -344.78,294.34 -576.07,265.06l60.34 -248.73c-134.15,-38.71 -270.99,38.04 -403.41,94.31 45.36,27.12 142.8,-13.71 200.84,34.3 -83.37,196.46 -100.79,348.8 -323.07,353.36l-97.87 -484.99c-146.09,-39.08 -234.58,0 -373.31,63.45 71.29,46.9 -38.01,-5.69 108.54,11.12l101.59 19.54c-69.13,142.65 -251.81,390.87 -403.55,367.15 -37.24,-172.86 176.53,-89.49 65.37,-389.49 -120.62,-179.38 -643.92,-111.09 -796.65,165.76 -110.9,201.04 24.68,171.09 -105.42,253.51 -247.98,-156.04 149.8,-714.34 -523.92,-428 51,33.68 -20.86,-0.59 64.08,8.96 8.87,0.99 38.18,1.97 47.44,3.21 6.47,0.87 18.53,2.12 24.44,3.05 5.94,0.93 19.38,4.25 24.24,5.13l49.08 14.46c-104.51,216.3 -250.98,382.31 -502.36,401.14l-233.16 -251.75c124.45,-49.28 163.53,-113.33 283.13,-135.82 133.76,-25.14 124.03,55.17 198.58,-120.91 -299.34,-44.95 -353.5,184.11 -632.09,279.8z"/>
     <path class="fil0" d="M5081.2 2171.9c38.22,-188.46 136.65,-275.07 327.05,-276.08 5.65,194.62 -155.03,241.05 -327.05,276.08zm-1116.61 -140.32c146.41,-41.61 96.3,-77.28 271.14,-69.57 -27.37,206.65 -152.05,302.75 -208.99,485.06 270.88,-26.34 159.94,-69.32 292.64,-271.14 91.51,-139.16 204.76,-198.42 367.23,-228.83 -50.04,229.09 -223.07,297.57 -136.08,485.39 150.53,33.01 114.87,14.25 243.42,-31.63 158.47,-56.55 25.15,-39.23 187.12,18.25 180.86,64.19 333.59,11.9 500.52,-62.2l11.39 34.91c5.24,10.32 9.23,22.54 14.5,27.82 143.55,143.66 308.03,-199.25 358.65,-283.81l49.41 -263.46c-132.45,-50.02 -96.36,-33.95 -225.48,7.72l-11.34 204.03c-93.12,257.7 -532.35,430.11 -612,161.53 135.13,-113.56 559.64,-98.03 536.6,-334.34 -155.79,-141.7 -416.45,-56.74 -560.69,70.95 -242.83,214.96 -103.62,371.52 -327.66,355.83 22.18,-197.72 156.83,-256.95 174.98,-492.97 -213.99,-0.16 -297.8,75.12 -472.89,176.85 -2.53,-5.07 -1.99,-14.27 -2.34,-16.86 -0.36,-2.71 -1.91,-14.15 -2.4,-17.66l-27.07 -142.43c-145.48,9.7 -337.93,78.2 -420.66,186.56z"/>
     <path class="fil0" d="M11431.73 2313.16c-55.76,-39.69 30.84,-21.85 -56.02,-16.23 -28.05,1.81 -39.89,10.36 -66.68,21.01 -545.58,216.86 -319.77,-319.38 -122.43,-404.43 212.19,-91.45 138.66,47.35 282.04,71.85l68.49 -118.86c-195.98,-53.41 -381.75,-12.66 -550.66,97.25 -265.95,173.05 -185.72,271.12 -249.84,398.68 -173.34,-105.93 -64.97,-162.11 -264.73,-212.26 362.17,-356.53 322.48,-6.65 481.72,-303.13 -349.35,-16.03 -322.15,195.36 -619.69,273.38 188.7,447.1 358.4,293.25 477.81,288.32 41.59,-1.71 373.37,128.76 619.99,-95.58z"/>
     <path class="fil0" d="M3964.59 2031.58l-21.39 -162.01c-136.44,-41.76 -270.46,34.68 -405.09,91.88 36.49,21.65 -4.21,15.48 85.96,14.68 24.97,-0.23 30.73,-14.75 113.28,-7.44 -28.87,200.92 -138.1,302.43 -195.81,481.03l172.36 -28.36c15.86,-19.9 244.98,-377.02 250.69,-389.78z"/>
    </g>
    <path class="fil1 str0" d="M6883.51 1607.5l72.47 -68.59 43.99 0 -98.75 87.29 -17.71 -18.7zm-0.18 16.52l30.72 -10.99 96.4 77.91 -48.6 0 -78.52 -66.92zm-64.26 -85.11l35.06 0 0 152.03 -35.06 0 0 -152.03zm17 66.41l78.16 0 0 20.27 -78.16 0 0 -20.27zm588.04 87.19c-17.42,0 -32.78,-2.32 -46.09,-6.96 -13.26,-4.64 -23.51,-11.17 -30.79,-19.66 -7.26,-8.46 -10.91,-18.28 -10.91,-29.41l0 -43.08c0,-11.17 3.65,-20.98 10.91,-29.44 7.28,-8.46 17.53,-15.02 30.79,-19.66 13.31,-4.64 28.67,-6.96 46.09,-6.96 17.35,0 32.71,2.32 46.02,6.96 13.26,4.64 23.58,11.2 30.86,19.66 7.26,8.46 10.89,18.27 10.89,29.44l0 43.08c0,11.13 -3.63,20.95 -10.89,29.41 -7.28,8.49 -17.6,15.02 -30.86,19.66 -13.31,4.64 -28.67,6.96 -46.02,6.96zm0 -21.02c10.25,0 19.35,-1.43 27.21,-4.25 7.85,-2.82 13.9,-6.81 18.17,-12.02 4.34,-5.18 6.46,-11.17 6.46,-18.03l0 -44.54c0,-6.81 -2.12,-12.84 -6.46,-18.02 -4.27,-5.21 -10.32,-9.21 -18.17,-12.03 -7.86,-2.81 -16.96,-4.24 -27.21,-4.24 -10.32,0 -19.41,1.43 -27.28,4.24 -7.85,2.82 -13.88,6.82 -18.17,12.03 -4.34,5.18 -6.46,11.21 -6.46,18.02l0 44.54c0,6.86 2.12,12.85 6.46,18.03 4.29,5.21 10.32,9.2 18.17,12.02 7.87,2.82 16.96,4.25 27.28,4.25zm627.5 -132.58l32.78 0 0 152.03 -34.2 0 0 -113.85 1.76 6.68 -61.51 86.04 -24.39 0 -61.51 -83.94 1.69 -8.78 0 113.85 -34.18 0 0 -152.03 32.83 0 73.36 100.39 73.37 -100.39zm540.05 0l35.08 0 0 152.03 -35.08 0 0 -152.03zm-141.89 0l35.06 0 0 152.03 -35.06 0 0 -152.03zm21.8 0l138.69 0 0 20.3 -138.69 0 0 -20.3zm588.56 0l29.86 0 92.11 152.03 -37.82 0 -69.24 -122.66 -69.21 122.66 -37.81 0 92.11 -152.03zm-49.67 98.39l131.42 0 0 20.27 -131.42 0 0 -20.27zm654.83 -98.39l35.08 0 0 152.03 -35.08 0 0 -152.03zm-141.9 0l35.07 0 0 152.03 -35.07 0 0 -152.03zm21.81 67.02l138.69 0 0 20.27 -138.69 0 0 -20.27zm670.3 84.9l0 -119.52 4.11 2.75 -125.19 116.77 -28.73 0 0 -151.92 34.71 0 0 121.3 -4.1 -2.75 125.54 -118.55 28.38 0 0 151.92 -34.72 0zm459.86 -61.06c-14.31,0 -26.98,-1.89 -37.87,-5.64 -10.98,-3.78 -19.47,-9.06 -25.52,-15.95 -6.09,-6.85 -9.08,-14.81 -9.08,-23.88l0 0c0,-9.06 2.99,-17.02 8.97,-23.91 6.04,-6.85 14.47,-12.17 25.45,-15.95 10.96,-3.75 23.62,-5.64 38.05,-5.64l82.09 0 0 20.31 -83.5 0c-6.74,0 -12.67,1.03 -17.76,3.14 -5.11,2.07 -9.04,5.03 -11.85,8.81 -2.81,3.82 -4.22,8.21 -4.22,13.24l0 0c0,5 1.41,9.42 4.22,13.21 2.81,3.82 6.8,6.74 11.96,8.85 5.16,2.07 11.03,3.14 17.65,3.14l83.5 0 0 20.27 -82.09 0zm-7.03 -9.49l34.88 4.78 -60.69 65.88 -41.57 0 67.38 -70.66zm69.37 -81.48l35.06 0 0 152.14 -35.06 0 0 -152.14z"/>
   </g>
   <path class="fil1 str1" d="M12399.9 2066.32l0 -231.74 4.95 5.33 -150.77 226.41 -34.6 0 0 -294.57 41.81 0 0 235.2 -4.94 -5.33 151.19 -229.87 34.17 0 0 294.57 -41.81 0zm211.61 3.25c-19.13,0 -36.01,-3.04 -50.56,-9.2 -14.55,-6.16 -26.26,-15.15 -35.16,-26.92 -8.9,-11.76 -14.49,-25.88 -16.88,-42.34l0 0 43.07 0 0 0c2.62,12.31 9.26,21.86 20.06,28.57 10.73,6.79 24.57,10.18 41.59,10.18 16.67,0 29.59,-4.16 38.7,-12.46 9.04,-8.37 13.63,-20.14 13.63,-35.43l0 -0.21c0,-15.5 -4.03,-27.54 -12.08,-36.05 -8.12,-8.51 -19.42,-12.8 -34.03,-12.8l-44.07 0 0 -39.3 44.07 0c13.06,0 23.23,-3.74 30.36,-11.14 7.2,-7.48 10.81,-17.99 10.81,-31.63l0 -1.86c0,-13.36 -4.17,-23.46 -12.36,-30.31 -8.2,-6.78 -19.91,-10.17 -35.24,-10.17 -14.33,0 -26.48,3.18 -36.29,9.61 -9.89,6.37 -16.68,15.43 -20.41,27.06l0 0 -42.8 0 0 0c3.32,-16.12 9.25,-29.89 17.94,-41.38 8.75,-11.49 19.84,-20.21 33.33,-26.16 13.56,-5.95 28.88,-8.92 46.12,-8.92 20.05,0 37,2.9 51.05,8.72 13.98,5.81 24.65,14.46 31.92,25.88 7.34,11.41 11.02,25.39 11.02,42.07l0 1.59c0,15.57 -3.53,29.06 -10.6,40.48 -6.99,11.42 -17.02,19.79 -30.01,25.19 14.47,3.39 25.71,11.28 33.62,23.73 7.98,12.46 11.93,28.3 11.93,47.68l0 0.14c0,17.99 -3.88,33.35 -11.59,46.15 -7.76,12.8 -18.99,22.49 -33.75,29.2 -14.76,6.71 -32.55,10.03 -53.39,10.03zm140.28 -42.34l1.91 0c17.37,0 30.86,-6.92 40.39,-20.69 9.61,-13.77 14.41,-33.22 14.41,-58.2l0 -176.59 42.23 0 0 180.26c0,21.59 -3.67,40.06 -11.02,55.36 -7.27,15.22 -17.86,26.91 -31.71,34.94 -13.91,8.03 -30.64,12.04 -50.2,12.04l-6.01 0 0 -27.12zm-0.2 0l42.23 0 0 100.33 -42.23 0 0 -100.33zm0 0l260.71 0 0 39.3 -260.71 0 0 -39.3zm237.34 0l42.16 0 0 100.33 -42.16 0 0 -100.33zm-40.39 -255.48l42.23 0 0 294.78 -42.23 0 0 -294.78zm-113.77 0l136.15 0 0 39.38 -136.15 0 0 -39.38zm246.99 0l42.23 0 0 294.78 -42.23 0 0 -294.78zm20.47 255.48l172.81 0 0 39.3 -172.81 0 0 -39.3zm0 -126.7l150 0 0 39.3 -150 0 0 -39.3zm0 -128.78l172.81 0 0 39.38 -172.81 0 0 -39.38zm227.64 255.48l0 0c12.07,0 21.96,-2.77 29.44,-8.24 7.49,-5.46 13.07,-13.98 16.67,-25.53 3.6,-11.56 5.37,-26.57 5.37,-45.12l0 -176.59 42.23 0 0 174.17c0,28.37 -3.11,51.41 -9.32,68.99 -6.22,17.64 -15.89,30.65 -28.95,39.03 -13.14,8.37 -30.23,12.59 -51.35,12.59l-4.09 0 0 -39.3zm199.64 -255.48l42.16 0 0 294.78 -42.16 0 0 -294.78zm-121.89 0l144.2 0 0 39.38 -144.2 0 0 -39.38zm426.2 294.57l0 -231.74 4.95 5.33 -150.77 226.41 -34.6 0 0 -294.57 41.8 0 0 235.2 -4.94 -5.33 151.19 -229.87 34.18 0 0 294.57 -41.81 0zm195.51 -118.39c-17.23,0 -32.48,-3.67 -45.62,-10.94 -13.2,-7.33 -23.45,-17.57 -30.71,-30.93 -7.35,-13.28 -10.95,-28.71 -10.95,-46.29l0 0c0,-17.58 3.6,-33.01 10.8,-46.36 7.27,-13.29 17.44,-23.6 30.65,-30.93 13.21,-7.27 28.45,-10.94 45.83,-10.94l98.86 0 0 39.38 -100.55 0c-8.13,0 -15.26,2 -21.4,6.09 -6.15,4.01 -10.88,9.75 -14.27,17.09 -3.39,7.4 -5.08,15.91 -5.08,25.67l0 0c0,9.69 1.69,18.27 5.08,25.6 3.39,7.41 8.2,13.08 14.41,17.16 6.22,4.02 13.28,6.09 21.26,6.09l100.55 0 0 39.31 -98.86 0zm-8.48 -18.41l42.03 9.27 -73.09 127.74 -50.07 0 81.13 -137.01zm83.54 -157.98l42.23 0 0 294.99 -42.23 0 0 -294.99zm383.95 294.78l0 -231.74 4.95 5.33 -150.78 226.41 -34.59 0 0 -294.57 41.8 0 0 235.2 -4.94 -5.33 151.19 -229.87 34.18 0 0 294.57 -41.81 0zm280.7 -161.57l87.29 -133 52.96 0 -118.92 169.26 -21.33 -36.26zm-0.2 32.04l37 -21.32 116.09 151.06 -58.54 0 -94.55 -129.74zm-77.4 -165.04l42.23 0 0 294.78 -42.23 0 0 -294.78zm20.47 128.78l94.14 0 0 39.3 -94.14 0 0 -39.3zm349.87 169.04c-20.97,0 -39.47,-4.49 -55.49,-13.49 -15.97,-8.99 -28.32,-21.66 -37.08,-38.13 -8.76,-16.4 -13.13,-35.42 -13.13,-57.01l0 -83.52c0,-21.66 4.37,-40.69 13.13,-57.09 8.76,-16.4 21.11,-29.13 37.08,-38.13 16.02,-8.99 34.52,-13.49 55.49,-13.49 20.91,0 39.41,4.5 55.44,13.49 15.96,9 28.39,21.73 37.14,38.13 8.76,16.4 13.14,35.43 13.14,57.09l0 83.52c0,21.59 -4.38,40.61 -13.14,57.01 -8.75,16.47 -21.18,29.14 -37.14,38.13 -16.03,9 -34.53,13.49 -55.44,13.49zm0 -40.75c12.36,0 23.31,-2.77 32.77,-8.24 9.46,-5.46 16.74,-13.21 21.89,-23.32 5.23,-10.03 7.77,-21.65 7.77,-34.94l0 -86.36c0,-13.21 -2.54,-24.91 -7.77,-34.94 -5.15,-10.1 -12.43,-17.85 -21.89,-23.32 -9.46,-5.47 -20.41,-8.24 -32.77,-8.24 -12.42,0 -23.37,2.77 -32.83,8.24 -9.46,5.47 -16.74,13.22 -21.89,23.32 -5.22,10.03 -7.78,21.73 -7.78,34.94l0 86.36c0,13.29 2.56,24.91 7.78,34.94 5.15,10.11 12.43,17.86 21.89,23.32 9.46,5.47 20.41,8.24 32.83,8.24zm352.06 -257.07l42.23 0 0 294.78 -42.23 0 0 -294.78zm-170.88 0l42.23 0 0 294.78 -42.23 0 0 -294.78zm26.26 129.95l167.01 0 0 39.31 -167.01 0 0 -39.31zm367.04 167.87c-20.84,0 -39.13,-4.49 -54.95,-13.56 -15.82,-9.06 -28.03,-21.93 -36.72,-38.54 -8.68,-16.61 -12.99,-35.91 -12.99,-57.78l0 -80.89c0,-21.87 4.31,-41.17 12.99,-57.78 8.69,-16.61 20.9,-29.48 36.72,-38.61 15.82,-9.14 34.11,-13.7 54.95,-13.7 17.22,0 33.11,3.66 47.59,10.86 14.48,7.2 26.55,17.44 36.3,30.72 9.74,13.22 16.31,28.58 19.77,46.02l0 0 -43.29 0 0 0c-2.61,-9.2 -6.99,-17.44 -13.13,-24.63 -6.15,-7.27 -13.35,-12.8 -21.62,-16.75 -8.25,-3.87 -16.79,-5.88 -25.62,-5.88 -12.29,0 -23.02,2.91 -32.28,8.72 -9.25,5.81 -16.45,13.98 -21.53,24.42 -5.09,10.52 -7.64,22.7 -7.64,36.61l0 80.89c0,13.77 2.55,25.95 7.64,36.47 5.08,10.58 12.28,18.68 21.53,24.42 9.26,5.75 19.99,8.65 32.28,8.65 8.96,0 17.51,-1.8 25.77,-5.46 8.19,-3.67 15.32,-9.07 21.47,-16.26 6.14,-7.13 10.52,-15.64 13.13,-25.54l0 0 43.29 0 0 0c-3.46,17.44 -10.1,32.8 -19.92,46.02 -9.74,13.28 -21.89,23.52 -36.36,30.72 -14.48,7.27 -30.3,10.86 -47.38,10.86zm214.56 -273.67l42.16 0 0 270.63 -42.16 0 0 -270.63zm-85.09 -24.15l212.27 0 0 39.38 -212.27 0 0 -39.38zm274.38 141.09l96.19 0c9.1,0 17.08,-2.07 24,-6.29 6.92,-4.15 12.22,-10.11 16.03,-17.79 3.82,-7.75 5.72,-16.6 5.72,-26.57l0 0c0,-10.17 -1.9,-19.1 -5.72,-26.78 -3.81,-7.68 -9.11,-13.7 -16.03,-17.92 -6.92,-4.29 -14.9,-6.36 -24,-6.36l-96.19 0 0 -39.38 94.77 0c17.94,0 33.69,3.74 47.38,11.28 13.64,7.47 24.23,18.06 31.71,31.69 7.56,13.7 11.3,29.48 11.3,47.47l0 0c0,17.99 -3.74,33.77 -11.3,47.33 -7.48,13.57 -18.07,24.08 -31.71,31.49 -13.69,7.47 -29.44,11.21 -47.38,11.21l-94.77 0 0 -39.38zm-21.75 -141.09l42.23 0 0 294.78 -42.23 0 0 -294.78zm266.89 0l47.95 0 88.35 211.05 -27.26 33.08 -109.04 -244.13zm152.04 233.75c-5.37,14.32 -11.44,26.22 -18.29,35.57 -6.84,9.41 -14.9,16.53 -24.22,21.31 -9.32,4.77 -20.27,7.19 -32.76,7.19l-34.97 0 0 -40.75 34.97 0c6.35,0 11.93,-1.46 16.8,-4.43 4.95,-2.98 9.25,-7.34 13.07,-13.08 3.81,-5.74 7.27,-13.01 10.45,-21.8l76.97 -217.76 45.9 0 -87.92 233.75zm216.19 -100.75l87.29 -133 52.96 0 -118.92 169.26 -21.33 -36.26zm-0.2 32.04l37 -21.32 116.09 151.06 -58.54 0 -94.55 -129.74zm-77.4 -165.04l42.23 0 0 294.78 -42.23 0 0 -294.78zm20.47 128.78l94.14 0 0 39.3 -94.14 0 0 -39.3zm429.53 -128.78l42.23 0 0 294.78 -42.23 0 0 -294.78zm-144.62 255.48l200.06 0 0 39.3 -200.06 0 0 -39.3zm185.23 0l42.16 0 0 100.33 -42.16 0 0 -100.33zm-211.49 -255.48l42.22 0 0 294.78 -42.22 0 0 -294.78zm493 294.57l0 -231.74 4.95 5.33 -150.77 226.41 -34.6 0 0 -294.57 41.8 0 0 235.2 -4.94 -5.33 151.2 -229.87 34.17 0 0 294.57 -41.81 0zm303.91 0l0 -231.74 4.95 5.33 -150.78 226.41 -34.59 0 0 -294.57 41.8 0 0 235.2 -4.94 -5.33 151.19 -229.87 34.18 0 0 294.57 -41.81 0zm383.52 0l0 -231.74 4.95 5.33 -150.77 226.41 -34.6 0 0 -294.57 41.8 0 0 235.2 -4.94 -5.33 151.19 -229.87 34.18 0 0 294.57 -41.81 0zm211.61 3.25c-19.14,0 -36.02,-3.04 -50.56,-9.2 -14.55,-6.16 -26.27,-15.15 -35.17,-26.92 -8.9,-11.76 -14.48,-25.88 -16.88,-42.34l0 0 43.08 0 0 0c2.61,12.31 9.26,21.86 20.05,28.57 10.74,6.79 24.58,10.18 41.6,10.18 16.67,0 29.59,-4.16 38.7,-12.46 9.04,-8.37 13.62,-20.14 13.62,-35.43l0 -0.21c0,-15.5 -4.02,-27.54 -12.07,-36.05 -8.12,-8.51 -19.42,-12.8 -34.03,-12.8l-44.07 0 0 -39.3 44.07 0c13.06,0 23.22,-3.74 30.36,-11.14 7.2,-7.48 10.8,-17.99 10.8,-31.63l0 -1.86c0,-13.36 -4.16,-23.46 -12.35,-30.31 -8.2,-6.78 -19.92,-10.17 -35.24,-10.17 -14.33,0 -26.49,3.18 -36.29,9.61 -9.89,6.37 -16.68,15.43 -20.41,27.06l0 0 -42.81 0 0 0c3.33,-16.12 9.26,-29.89 17.95,-41.38 8.75,-11.49 19.83,-20.21 33.33,-26.16 13.56,-5.95 28.88,-8.92 46.11,-8.92 20.06,0 37.01,2.9 51.06,8.72 13.98,5.81 24.65,14.46 31.91,25.88 7.35,11.41 11.02,25.39 11.02,42.07l0 1.59c0,15.57 -3.53,29.06 -10.59,40.48 -6.99,11.42 -17.02,19.79 -30.01,25.19 14.47,3.39 25.71,11.28 33.61,23.73 7.98,12.46 11.93,28.3 11.93,47.68l0 0.14c0,17.99 -3.87,33.35 -11.58,46.15 -7.77,12.8 -18.99,22.49 -33.75,29.2 -14.76,6.71 -32.55,10.03 -53.39,10.03zm347.16 0c-20.84,0 -39.13,-4.49 -54.94,-13.56 -15.82,-9.06 -28.04,-21.93 -36.72,-38.54 -8.69,-16.61 -12.99,-35.91 -12.99,-57.78l0 -80.89c0,-21.87 4.3,-41.17 12.99,-57.78 8.68,-16.61 20.9,-29.48 36.72,-38.61 15.81,-9.14 34.1,-13.7 54.94,-13.7 17.23,0 33.12,3.66 47.59,10.86 14.48,7.2 26.55,17.44 36.3,30.72 9.75,13.22 16.32,28.58 19.78,46.02l0 0 -43.29 0 0 0c-2.62,-9.2 -6.99,-17.44 -13.14,-24.63 -6.14,-7.27 -13.35,-12.8 -21.61,-16.75 -8.26,-3.87 -16.8,-5.88 -25.63,-5.88 -12.29,0 -23.02,2.91 -32.28,8.72 -9.24,5.81 -16.45,13.98 -21.53,24.42 -5.08,10.52 -7.63,22.7 -7.63,36.61l0 80.89c0,13.77 2.55,25.95 7.63,36.47 5.08,10.58 12.29,18.68 21.53,24.42 9.26,5.75 19.99,8.65 32.28,8.65 8.96,0 17.51,-1.8 25.77,-5.46 8.2,-3.67 15.33,-9.07 21.47,-16.26 6.15,-7.13 10.52,-15.64 13.14,-25.54l0 0 43.29 0 0 0c-3.46,17.44 -10.11,32.8 -19.92,46.02 -9.75,13.28 -21.89,23.52 -36.36,30.72 -14.49,7.27 -30.3,10.86 -47.39,10.86zm214.57 -273.67l42.16 0 0 270.63 -42.16 0 0 -270.63zm-85.09 -24.15l212.27 0 0 39.38 -212.27 0 0 -39.38zm252.63 0l42.23 0 0 294.78 -42.23 0 0 -294.78zm20.47 255.48l172.81 0 0 39.3 -172.81 0 0 -39.3zm0 -126.7l150 0 0 39.3 -150 0 0 -39.3zm0 -128.78l172.81 0 0 39.38 -172.81 0 0 -39.38zm317.6 133l87.29 -133 52.96 0 -118.92 169.26 -21.33 -36.26zm-0.2 32.04l37 -21.32 116.09 151.06 -58.54 0 -94.55 -129.74zm-77.4 -165.04l42.23 0 0 294.78 -42.23 0 0 -294.78zm20.47 128.78l94.13 0 0 39.3 -94.13 0 0 -39.3zm246.28 126.7l0 0c12.08,0 21.97,-2.77 29.45,-8.24 7.49,-5.46 13.06,-13.98 16.66,-25.53 3.6,-11.56 5.37,-26.57 5.37,-45.12l0 -176.59 42.23 0 0 174.17c0,28.37 -3.1,51.41 -9.32,68.99 -6.21,17.64 -15.89,30.65 -28.95,39.03 -13.13,8.37 -30.23,12.59 -51.34,12.59l-4.1 0 0 -39.3zm199.64 -255.48l42.16 0 0 294.78 -42.16 0 0 -294.78zm-121.89 0l144.2 0 0 39.38 -144.2 0 0 -39.38zm327.76 0l35.96 0 110.93 294.78 -45.55 0 -83.4 -237.83 -83.32 237.83 -45.55 0 110.93 -294.78zm-59.81 190.78l158.25 0 0 39.3 -158.25 0 0 -39.3zm-7530.18 605.33c-20.97,0 -39.48,-4.49 -55.5,-13.49 -15.96,-8.99 -28.32,-21.66 -37.08,-38.13 -8.75,-16.4 -13.13,-35.42 -13.13,-57.01l0 -83.52c0,-21.66 4.38,-40.69 13.13,-57.09 8.76,-16.4 21.12,-29.13 37.08,-38.13 16.02,-8.99 34.53,-13.49 55.5,-13.49 20.91,0 39.41,4.5 55.43,13.49 15.96,9 28.39,21.73 37.15,38.13 8.76,16.4 13.13,35.43 13.13,57.09l0 83.52c0,21.59 -4.37,40.61 -13.13,57.01 -8.76,16.47 -21.19,29.14 -37.15,38.13 -16.02,9 -34.52,13.49 -55.43,13.49zm0 -40.75c12.36,0 23.31,-2.77 32.77,-8.24 9.46,-5.46 16.73,-13.21 21.89,-23.32 5.22,-10.03 7.76,-21.65 7.76,-34.94l0 -86.36c0,-13.21 -2.54,-24.91 -7.76,-34.94 -5.16,-10.1 -12.43,-17.85 -21.89,-23.32 -9.46,-5.47 -20.41,-8.24 -32.77,-8.24 -12.42,0 -23.37,2.77 -32.83,8.24 -9.46,5.47 -16.74,13.22 -21.89,23.32 -5.23,10.03 -7.78,21.73 -7.78,34.94l0 86.36c0,13.29 2.55,24.91 7.78,34.94 5.15,10.11 12.43,17.86 21.89,23.32 9.46,5.47 20.41,8.24 32.83,8.24zm224.88 -232.92l42.16 0 0 270.63 -42.16 0 0 -270.63zm-85.09 -24.15l212.27 0 0 39.38 -212.27 0 0 -39.38zm219.72 255.48l1.91 0c17.37,0 30.86,-6.92 40.39,-20.69 9.6,-13.77 14.41,-33.22 14.41,-58.2l0 -176.59 42.23 0 0 180.26c0,21.59 -3.67,40.06 -11.02,55.36 -7.27,15.22 -17.86,26.91 -31.71,34.94 -13.91,8.03 -30.65,12.04 -50.2,12.04l-6.01 0 0 -27.12zm-0.2 0l42.22 0 0 100.33 -42.22 0 0 -100.33zm0 0l260.71 0 0 39.3 -260.71 0 0 -39.3zm237.34 0l42.16 0 0 100.33 -42.16 0 0 -100.33zm-40.39 -255.48l42.23 0 0 294.78 -42.23 0 0 -294.78zm-113.77 0l136.15 0 0 39.38 -136.15 0 0 -39.38zm246.99 0l42.23 0 0 294.78 -42.23 0 0 -294.78zm20.47 255.48l172.81 0 0 39.3 -172.81 0 0 -39.3zm0 -126.7l150 0 0 39.3 -150 0 0 -39.3zm0 -128.78l172.81 0 0 39.38 -172.81 0 0 -39.38zm227.64 255.48l0 0c12.07,0 21.96,-2.77 29.44,-8.24 7.49,-5.46 13.06,-13.98 16.67,-25.53 3.6,-11.56 5.36,-26.57 5.36,-45.12l0 -176.59 42.23 0 0 174.17c0,28.37 -3.1,51.41 -9.31,68.99 -6.22,17.64 -15.89,30.65 -28.96,39.03 -13.13,8.37 -30.22,12.59 -51.34,12.59l-4.09 0 0 -39.3zm199.63 -255.48l42.16 0 0 294.78 -42.16 0 0 -294.78zm-121.89 0l144.2 0 0 39.38 -144.2 0 0 -39.38zm323.39 133l87.28 -133 52.97 0 -118.92 169.26 -21.33 -36.26zm-0.21 32.04l37.01 -21.32 116.08 151.06 -58.53 0 -94.56 -129.74zm-77.39 -165.04l42.23 0 0 294.78 -42.23 0 0 -294.78zm20.47 128.78l94.13 0 0 39.3 -94.13 0 0 -39.3zm340.62 -128.78l35.95 0 110.94 294.78 -45.55 0 -83.4 -237.83 -83.32 237.83 -45.55 0 110.93 -294.78zm-59.81 190.78l158.25 0 0 39.3 -158.25 0 0 -39.3zm437.55 107.04c-20.84,0 -39.13,-4.49 -54.95,-13.56 -15.81,-9.06 -28.03,-21.93 -36.71,-38.54 -8.69,-16.61 -13,-35.91 -13,-57.78l0 -80.89c0,-21.87 4.31,-41.17 13,-57.78 8.68,-16.61 20.9,-29.48 36.71,-38.61 15.82,-9.14 34.11,-13.7 54.95,-13.7 17.23,0 33.12,3.66 47.59,10.86 14.48,7.2 26.55,17.44 36.3,30.72 9.74,13.22 16.32,28.58 19.77,46.02l0 0 -43.29 0 0 0c-2.61,-9.2 -6.99,-17.44 -13.13,-24.63 -6.14,-7.27 -13.35,-12.8 -21.62,-16.75 -8.25,-3.87 -16.79,-5.88 -25.62,-5.88 -12.29,0 -23.02,2.91 -32.28,8.72 -9.25,5.81 -16.45,13.98 -21.53,24.42 -5.09,10.52 -7.64,22.7 -7.64,36.61l0 80.89c0,13.77 2.55,25.95 7.64,36.47 5.08,10.58 12.28,18.68 21.53,24.42 9.26,5.75 19.99,8.65 32.28,8.65 8.96,0 17.51,-1.8 25.77,-5.46 8.19,-3.67 15.33,-9.07 21.47,-16.26 6.14,-7.13 10.52,-15.64 13.13,-25.54l0 0 43.29 0 0 0c-3.45,17.44 -10.1,32.8 -19.92,46.02 -9.74,13.28 -21.89,23.52 -36.36,30.72 -14.48,7.27 -30.3,10.86 -47.38,10.86zm214.57 -273.67l42.15 0 0 270.63 -42.15 0 0 -270.63zm-85.1 -24.15l212.27 0 0 39.38 -212.27 0 0 -39.38zm252.64 0l42.23 0 0 294.78 -42.23 0 0 -294.78zm20.47 255.48l172.8 0 0 39.3 -172.8 0 0 -39.3zm0 -126.7l150 0 0 39.3 -150 0 0 -39.3zm0 -128.78l172.8 0 0 39.38 -172.8 0 0 -39.38zm317.6 133l87.28 -133 52.97 0 -118.92 169.26 -21.33 -36.26zm-0.21 32.04l37.01 -21.32 116.08 151.06 -58.54 0 -94.55 -129.74zm-77.39 -165.04l42.23 0 0 294.78 -42.23 0 0 -294.78zm20.47 128.78l94.13 0 0 39.3 -94.13 0 0 -39.3zm246.28 126.7l0 0c12.07,0 21.96,-2.77 29.44,-8.24 7.5,-5.46 13.07,-13.98 16.67,-25.53 3.6,-11.56 5.37,-26.57 5.37,-45.12l0 -176.59 42.23 0 0 174.17c0,28.37 -3.11,51.41 -9.32,68.99 -6.22,17.64 -15.89,30.65 -28.95,39.03 -13.14,8.37 -30.23,12.59 -51.35,12.59l-4.09 0 0 -39.3zm199.64 -255.48l42.16 0 0 294.78 -42.16 0 0 -294.78zm-121.89 0l144.2 0 0 39.38 -144.2 0 0 -39.38zm345.34 297.82c-20.97,0 -39.47,-4.49 -55.49,-13.49 -15.96,-8.99 -28.32,-21.66 -37.08,-38.13 -8.76,-16.4 -13.13,-35.42 -13.13,-57.01l0 -83.52c0,-21.66 4.37,-40.69 13.13,-57.09 8.76,-16.4 21.12,-29.13 37.08,-38.13 16.02,-8.99 34.52,-13.49 55.49,-13.49 20.91,0 39.42,4.5 55.44,13.49 15.96,9 28.39,21.73 37.15,38.13 8.75,16.4 13.13,35.43 13.13,57.09l0 83.52c0,21.59 -4.38,40.61 -13.13,57.01 -8.76,16.47 -21.19,29.14 -37.15,38.13 -16.02,9 -34.53,13.49 -55.44,13.49zm0 -40.75c12.36,0 23.31,-2.77 32.77,-8.24 9.46,-5.46 16.74,-13.21 21.89,-23.32 5.23,-10.03 7.77,-21.65 7.77,-34.94l0 -86.36c0,-13.21 -2.54,-24.91 -7.77,-34.94 -5.15,-10.1 -12.43,-17.85 -21.89,-23.32 -9.46,-5.47 -20.41,-8.24 -32.77,-8.24 -12.42,0 -23.37,2.77 -32.83,8.24 -9.46,5.47 -16.73,13.22 -21.89,23.32 -5.22,10.03 -7.77,21.73 -7.77,34.94l0 86.36c0,13.29 2.55,24.91 7.77,34.94 5.16,10.11 12.43,17.86 21.89,23.32 9.46,5.47 20.41,8.24 32.83,8.24zm397.41 -257.07l39.47 0 0 294.78 -41.17 0 0 -220.74 2.12 12.94 -74.08 166.84 -29.38 0 -74.08 -162.75 2.06 -17.03 0 220.74 -41.17 0 0 -294.78 39.54 0 88.34 194.65 88.35 -194.65zm381.25 294.57l0 -231.74 4.95 5.33 -150.78 226.41 -34.59 0 0 -294.57 41.8 0 0 235.2 -4.94 -5.33 151.19 -229.87 34.18 0 0 294.57 -41.81 0zm291.23 3.25c-19.14,0 -36.02,-3.04 -50.56,-9.2 -14.55,-6.16 -26.27,-15.15 -35.17,-26.92 -8.9,-11.76 -14.48,-25.88 -16.88,-42.34l0 0 43.08 0 0 0c2.61,12.31 9.25,21.86 20.05,28.57 10.74,6.79 24.58,10.18 41.6,10.18 16.66,0 29.58,-4.16 38.7,-12.46 9.04,-8.37 13.62,-20.14 13.62,-35.43l0 -0.21c0,-15.5 -4.02,-27.54 -12.07,-36.05 -8.13,-8.51 -19.42,-12.8 -34.04,-12.8l-44.06 0 0 -39.3 44.06 0c13.07,0 23.23,-3.74 30.36,-11.14 7.21,-7.48 10.81,-17.99 10.81,-31.63l0 -1.86c0,-13.36 -4.16,-23.46 -12.36,-30.31 -8.19,-6.78 -19.91,-10.17 -35.24,-10.17 -14.32,0 -26.48,3.18 -36.29,9.61 -9.88,6.37 -16.67,15.43 -20.41,27.06l0 0 -42.8 0 0 0c3.33,-16.12 9.26,-29.89 17.94,-41.38 8.76,-11.49 19.84,-20.21 33.33,-26.16 13.57,-5.95 28.88,-8.92 46.12,-8.92 20.05,0 37.01,2.9 51.06,8.72 13.98,5.81 24.64,14.46 31.91,25.88 7.35,11.41 11.02,25.39 11.02,42.07l0 1.59c0,15.57 -3.53,29.06 -10.59,40.48 -6.99,11.42 -17.02,19.79 -30.01,25.19 14.47,3.39 25.7,11.28 33.61,23.73 7.98,12.46 11.93,28.3 11.93,47.68l0 0.14c0,17.99 -3.88,33.35 -11.58,46.15 -7.77,12.8 -18.99,22.49 -33.75,29.2 -14.77,6.71 -32.56,10.03 -53.39,10.03zm169.03 -297.82l42.23 0 0 294.78 -42.23 0 0 -294.78zm20.47 255.48l172.8 0 0 39.3 -172.8 0 0 -39.3zm0 -126.7l150 0 0 39.3 -150 0 0 -39.3zm0 -128.78l172.8 0 0 39.38 -172.8 0 0 -39.38zm261.74 141.09l96.19 0c9.1,0 17.08,-2.07 24,-6.29 6.92,-4.15 12.22,-10.11 16.03,-17.79 3.82,-7.75 5.72,-16.6 5.72,-26.57l0 0c0,-10.17 -1.9,-19.1 -5.72,-26.78 -3.81,-7.68 -9.11,-13.7 -16.03,-17.92 -6.92,-4.29 -14.9,-6.36 -24,-6.36l-96.19 0 0 -39.38 94.77 0c17.94,0 33.69,3.74 47.38,11.28 13.64,7.47 24.23,18.06 31.71,31.69 7.56,13.7 11.3,29.48 11.3,47.47l0 0c0,17.99 -3.74,33.77 -11.3,47.33 -7.48,13.57 -18.07,24.08 -31.71,31.49 -13.69,7.47 -29.44,11.21 -47.38,11.21l-94.77 0 0 -39.38zm-21.74 -141.09l42.23 0 0 294.78 -42.23 0 0 -294.78zm348.59 133l87.28 -133 52.97 0 -118.92 169.26 -21.33 -36.26zm-0.21 32.04l37.01 -21.32 116.08 151.06 -58.53 0 -94.56 -129.74zm-77.39 -165.04l42.23 0 0 294.78 -42.23 0 0 -294.78zm20.47 128.78l94.13 0 0 39.3 -94.13 0 0 -39.3zm340.62 -128.78l35.95 0 110.94 294.78 -45.55 0 -83.4 -237.83 -83.32 237.83 -45.55 0 110.93 -294.78zm-59.81 190.78l158.25 0 0 39.3 -158.25 0 0 -39.3zm247.06 64.7l0 0c12.07,0 21.96,-2.77 29.44,-8.24 7.49,-5.46 13.06,-13.98 16.67,-25.53 3.6,-11.56 5.36,-26.57 5.36,-45.12l0 -176.59 42.23 0 0 174.17c0,28.37 -3.1,51.41 -9.31,68.99 -6.22,17.64 -15.89,30.65 -28.96,39.03 -13.13,8.37 -30.23,12.59 -51.34,12.59l-4.09 0 0 -39.3zm199.63 -255.48l42.16 0 0 294.78 -42.16 0 0 -294.78zm-121.89 0l144.2 0 0 39.38 -144.2 0 0 -39.38zm345.35 297.82c-20.97,0 -39.48,-4.49 -55.5,-13.49 -15.96,-8.99 -28.32,-21.66 -37.07,-38.13 -8.76,-16.4 -13.14,-35.42 -13.14,-57.01l0 -83.52c0,-21.66 4.38,-40.69 13.14,-57.09 8.75,-16.4 21.11,-29.13 37.07,-38.13 16.02,-8.99 34.53,-13.49 55.5,-13.49 20.91,0 39.41,4.5 55.43,13.49 15.97,9 28.4,21.73 37.15,38.13 8.76,16.4 13.14,35.43 13.14,57.09l0 83.52c0,21.59 -4.38,40.61 -13.14,57.01 -8.75,16.47 -21.18,29.14 -37.15,38.13 -16.02,9 -34.52,13.49 -55.43,13.49zm0 -40.75c12.36,0 23.31,-2.77 32.77,-8.24 9.46,-5.46 16.73,-13.21 21.89,-23.32 5.22,-10.03 7.76,-21.65 7.76,-34.94l0 -86.36c0,-13.21 -2.54,-24.91 -7.76,-34.94 -5.16,-10.1 -12.43,-17.85 -21.89,-23.32 -9.46,-5.47 -20.41,-8.24 -32.77,-8.24 -12.42,0 -23.37,2.77 -32.83,8.24 -9.46,5.47 -16.74,13.22 -21.89,23.32 -5.23,10.03 -7.78,21.73 -7.78,34.94l0 86.36c0,13.29 2.55,24.91 7.78,34.94 5.15,10.11 12.43,17.86 21.89,23.32 9.46,5.47 20.41,8.24 32.83,8.24zm397.4 -257.07l39.48 0 0 294.78 -41.17 0 0 -220.74 2.11 12.94 -74.08 166.84 -29.37 0 -74.08 -162.75 2.05 -17.03 0 220.74 -41.17 0 0 -294.78 39.55 0 88.34 194.65 88.34 -194.65z"/>
  </g>
 </g>
</svg>
